<svg width="2225" height="1022" viewBox="0 0 2225 1022" fill="none" xmlns="http://www.w3.org/2000/svg">
<path opacity="0.924" fill-rule="evenodd" clip-rule="evenodd" d="M644.815 0.706052C756.625 -1.22839 868.178 0.812161 979.465 6.82771C992.757 15.0715 1001.6 26.6374 1005.99 41.5171C1008.71 91.8494 1008.71 142.186 1005.99 192.518C998.512 210.883 985.587 223.808 967.222 231.288C856.779 235.263 746.589 233.9 636.652 227.207C619.932 217.576 609.729 203.292 606.044 184.356C603.322 138.105 603.322 91.8494 606.044 45.5982C612.57 24.8091 625.495 9.84365 644.815 0.706052ZM661.139 25.1927C762.073 23.2705 862.737 25.311 963.141 31.3143C973.784 36.9381 979.906 45.7819 981.506 57.8415C985.191 101.615 983.828 145.149 977.425 188.437C972.47 194.758 966.348 199.517 959.06 202.721C853.955 206.724 749.205 205.365 644.815 198.64C639.13 193.861 635.726 187.739 634.612 180.275C631.89 136.742 631.89 93.2125 634.612 49.6793C640.472 37.6727 649.316 29.5105 661.139 25.1927Z" fill="black"/>
<path opacity="0.9" fill-rule="evenodd" clip-rule="evenodd" d="M2077.28 212.923C2164.08 200.509 2213.05 237.239 2224.2 323.113C2217.85 394.088 2179.08 430.818 2107.89 433.303C2038.68 428.708 2001.27 391.978 1995.66 323.113C1996.26 265.978 2023.46 229.248 2077.28 212.923ZM2101.77 245.572C2150.75 248.294 2176.59 274.144 2179.31 323.113C2170.83 383.938 2136.82 406.384 2077.28 390.451C2024.54 347.331 2023.18 302.438 2073.2 255.775C2083.42 252.926 2092.94 249.527 2101.77 245.572Z" fill="black"/>
<path opacity="0.923" fill-rule="evenodd" clip-rule="evenodd" d="M1330.44 217.005C1375.35 216.323 1420.24 217.005 1465.12 219.045C1507.04 232.856 1519.96 260.742 1503.89 302.708C1498.37 307.544 1493.6 312.988 1489.6 319.032C1529.27 349.53 1531.99 382.861 1497.77 419.019C1491.29 422.537 1484.49 425.259 1477.36 427.182C1428.41 429.222 1379.43 429.904 1330.44 429.222C1330.44 358.484 1330.44 287.742 1330.44 217.005ZM1375.33 249.654C1401.49 248.36 1427.34 250.4 1452.87 255.775C1472.86 270.124 1472.86 285.09 1452.87 300.667C1427.25 305.516 1401.4 307.556 1375.33 306.789C1375.33 287.742 1375.33 268.7 1375.33 249.654ZM1375.33 339.438C1404.2 338.054 1432.77 340.095 1461.04 345.559C1476.19 352.461 1480.95 364.026 1475.32 380.249C1471.63 385.15 1466.88 388.554 1461.04 390.452C1432.77 395.916 1404.2 397.957 1375.33 396.573C1375.33 377.527 1375.33 358.484 1375.33 339.438Z" fill="black"/>
<path opacity="0.933" fill-rule="evenodd" clip-rule="evenodd" d="M1558.98 217.004C1612.04 217.004 1665.09 217.004 1718.15 217.004C1718.15 227.888 1718.15 238.768 1718.15 249.653C1680.06 249.653 1641.96 249.653 1603.87 249.653C1603.87 268.699 1603.87 287.742 1603.87 306.788C1637.88 306.788 1671.89 306.788 1705.9 306.788C1705.9 317.673 1705.9 328.553 1705.9 339.437C1671.89 339.437 1637.88 339.437 1603.87 339.437C1603.87 358.484 1603.87 377.526 1603.87 396.573C1643.33 396.573 1682.77 396.573 1722.23 396.573C1722.23 407.457 1722.23 418.337 1722.23 429.221C1667.81 429.221 1613.4 429.221 1558.98 429.221C1558.98 358.484 1558.98 287.742 1558.98 217.004Z" fill="black"/>
<path opacity="0.901" fill-rule="evenodd" clip-rule="evenodd" d="M1750.79 217.004C1790.25 217.004 1829.69 217.004 1869.15 217.004C1869.83 265.998 1869.15 314.971 1867.11 363.924C1860.92 418.455 1830.31 440.901 1775.28 431.262C1755.91 428.132 1740.94 418.61 1730.39 402.694C1735.36 390.749 1742.84 380.546 1752.83 372.086C1771.28 398.605 1793.05 402.686 1818.13 384.329C1824.07 339.857 1826.11 294.965 1824.25 249.653C1799.77 249.653 1775.28 249.653 1750.79 249.653C1750.79 238.768 1750.79 227.888 1750.79 217.004Z" fill="black"/>
<path opacity="0.884" fill-rule="evenodd" clip-rule="evenodd" d="M1914.04 217.004C1929 217.004 1943.96 217.004 1958.93 217.004C1958.93 287.742 1958.93 358.484 1958.93 429.221C1943.96 429.221 1929 429.221 1914.04 429.221C1914.04 358.484 1914.04 287.742 1914.04 217.004Z" fill="black"/>
<path opacity="0.92" fill-rule="evenodd" clip-rule="evenodd" d="M0 233.329C172.765 233.329 345.535 233.329 518.3 233.329C518.3 244.213 518.3 255.094 518.3 265.978C356.415 265.978 194.534 265.978 32.6488 265.978C32.6488 506.763 32.6488 747.548 32.6488 988.333C194.534 988.333 356.415 988.333 518.3 988.333C518.3 999.218 518.3 1010.1 518.3 1020.98C345.535 1020.98 172.765 1020.98 0 1020.98C0 758.433 0 495.879 0 233.329Z" fill="black"/>
<path opacity="0.972" fill-rule="evenodd" clip-rule="evenodd" d="M746.842 265.975C902.447 249.622 1029.64 301.317 1128.43 421.057C1218.21 559.765 1218.21 698.523 1128.43 837.329C1023.57 963.448 889.579 1013.1 726.437 986.29C572.873 952.429 472.886 860.604 426.476 710.815C397.19 507.682 476.771 366.884 665.22 288.421C692.617 279.483 719.825 272.003 746.842 265.975ZM1101.9 772.032C1152.87 594.508 1098.45 460.513 938.654 370.043C783.499 312.508 653.581 347.197 548.909 474.111C487.778 572.356 477.575 675.746 518.3 784.275C452.048 674.934 454.088 566.103 524.422 457.787C623.311 336.851 749.148 294 901.924 329.232C1091.93 394.293 1167.43 525.566 1128.43 723.058C1120.68 740.371 1111.84 756.695 1101.9 772.032ZM795.816 502.679C913.633 513.661 966.01 577.6 952.938 694.491C921.791 779.129 861.256 815.177 771.329 802.64C713.549 785.671 676.137 748.259 659.099 690.41C649.381 586.652 694.955 524.072 795.816 502.679ZM1101.9 772.032C1101.25 778.778 1098.53 784.218 1093.74 788.356C1092.63 780.684 1095.35 775.244 1101.9 772.032Z" fill="black"/>
<path opacity="0.89" fill-rule="evenodd" clip-rule="evenodd" d="M1497.77 576.14C1520.93 575.463 1544.06 576.144 1567.14 578.181C1584.97 583.351 1600.62 592.191 1614.08 604.708C1616.8 608.789 1616.8 612.87 1614.08 616.951C1604.72 622.216 1596.56 629.019 1589.59 637.357C1554.84 601.288 1518.79 599.929 1481.44 633.276C1452.59 673.046 1455.31 710.457 1489.6 745.506C1526.12 766.887 1560.12 763.483 1591.63 735.303C1599.72 741.351 1607.2 748.155 1614.08 755.709C1616.87 760.949 1616.19 765.711 1612.04 769.993C1549.1 810.04 1491.28 803.919 1438.59 751.628C1419.28 716.746 1415.2 680.016 1426.35 641.438C1440.64 608.756 1464.45 586.992 1497.77 576.14Z" fill="black"/>
<path opacity="0.919" fill-rule="evenodd" clip-rule="evenodd" d="M1709.98 580.222C1725.19 578.904 1740.15 580.267 1754.87 584.304C1786.43 653.16 1816.36 722.539 1844.66 792.44C1829.45 793.758 1814.49 792.395 1799.77 788.359C1793.11 773.708 1787.66 758.742 1783.44 743.467C1749.41 742.789 1715.4 743.467 1681.42 745.507C1674.61 760.473 1667.81 775.434 1661.01 790.399C1646.04 793.121 1631.08 793.121 1616.12 790.399C1647.99 720.539 1679.28 650.479 1709.98 580.222ZM1730.39 629.196C1743.74 654.858 1755.99 681.385 1767.12 708.777C1744.03 710.814 1720.9 711.495 1697.74 710.818C1706.35 682.715 1717.23 655.511 1730.39 629.196Z" fill="black"/>
<path opacity="0.908" fill-rule="evenodd" clip-rule="evenodd" d="M1869.15 580.224C1883.01 578.918 1896.62 580.277 1909.96 584.305C1934.84 627.304 1960.69 669.478 1987.5 710.819C2014.66 670.143 2039.83 627.973 2063 584.305C2075.47 580.424 2088.4 579.065 2101.77 580.224C2101.77 650.962 2101.77 721.704 2101.77 792.442C2088.17 792.442 2074.56 792.442 2060.96 792.442C2061.64 750.247 2060.96 708.077 2058.92 665.927C2039.87 698.576 2020.83 731.225 2001.78 763.874C1989.42 775.546 1978.53 774.187 1969.13 759.793C1950.09 727.144 1931.04 694.495 1912 661.846C1909.96 705.355 1909.28 748.888 1909.96 792.442C1896.35 792.442 1882.75 792.442 1869.15 792.442C1869.15 721.704 1869.15 650.962 1869.15 580.224Z" fill="black"/>
<path opacity="0.782" fill-rule="evenodd" clip-rule="evenodd" d="M1942.61 939.359C1948.05 939.359 1953.49 939.359 1958.93 939.359C1958.93 944.799 1958.93 950.244 1958.93 955.684C1951.74 956.267 1944.94 954.904 1938.52 951.603C1926.89 972.869 1916 994.634 1905.88 1016.9C1899.07 1022.34 1892.27 1022.34 1885.47 1016.9C1874.97 994.205 1864.08 971.759 1852.82 949.562C1860.74 946.53 1868.22 947.211 1875.27 951.603C1882.07 966.568 1888.87 981.529 1895.67 996.495C1903.59 982.015 1910.39 967.054 1916.08 951.603C1926.42 949.766 1935.26 945.685 1942.61 939.359Z" fill="black"/>
<path opacity="0.843" fill-rule="evenodd" clip-rule="evenodd" d="M1477.36 943.44C1482.8 943.44 1488.24 943.44 1493.68 943.44C1493.68 950.244 1493.68 957.043 1493.68 963.846C1508 961.781 1520.92 964.499 1532.45 972.008C1534.49 988.275 1535.17 1004.6 1534.5 1020.98C1529.06 1020.98 1523.61 1020.98 1518.17 1020.98C1518.84 1008.66 1518.16 996.421 1516.13 984.251C1509.33 973.367 1502.53 973.367 1495.72 984.251C1493.69 996.421 1493.01 1008.66 1493.68 1020.98C1488.24 1020.98 1482.8 1020.98 1477.36 1020.98C1477.36 995.136 1477.36 969.286 1477.36 943.44Z" fill="black"/>
<path opacity="0.832" fill-rule="evenodd" clip-rule="evenodd" d="M2016.07 943.44C2021.51 943.44 2026.95 943.44 2032.39 943.44C2032.39 969.286 2032.39 995.136 2032.39 1020.98C2016.01 1021.66 1999.68 1020.98 1983.42 1018.94C1978.65 1016.9 1975.25 1013.5 1973.21 1008.74C1964.38 971.996 1978.66 957.035 2016.07 963.846C2016.07 957.043 2016.07 950.244 2016.07 943.44ZM1995.66 976.089C2012.12 976.869 2018.24 985.031 2014.02 1000.58C2000.76 1012.66 1991.91 1009.93 1987.5 992.414C1988.53 985.994 1991.24 980.554 1995.66 976.089Z" fill="black"/>
<path opacity="0.853" fill-rule="evenodd" clip-rule="evenodd" d="M1399.82 947.52C1417.56 946.842 1435.24 947.524 1452.87 949.561C1467.29 963.395 1468.65 978.361 1456.95 994.453C1443.94 999.823 1430.34 1001.86 1416.14 1000.57C1416.14 1007.38 1416.14 1014.18 1416.14 1020.98C1410.7 1020.98 1405.26 1020.98 1399.82 1020.98C1399.82 996.493 1399.82 972.007 1399.82 947.52ZM1416.14 959.763C1430.71 957.286 1441.6 962.049 1448.79 974.047C1441.05 984.609 1430.17 989.372 1416.14 988.331C1416.14 978.81 1416.14 969.284 1416.14 959.763Z" fill="black"/>
<path opacity="0.779" fill-rule="evenodd" clip-rule="evenodd" d="M1775.28 947.523C1788.28 945.565 1799.84 948.283 1809.97 955.686C1813.72 967.145 1810.32 975.989 1799.77 982.213C1803.17 985.612 1806.57 989.016 1809.97 992.416C1814.96 982.274 1821.08 981.593 1828.33 990.375C1818.24 998.231 1818.24 1005.71 1828.33 1012.82C1827.48 1015.21 1826.12 1017.25 1824.25 1018.94C1811.72 1017.54 1798.8 1018.22 1785.48 1020.98C1762 1021.96 1753.84 1011.07 1761 988.335C1772.09 983.694 1774.13 976.214 1767.12 965.888C1767.2 958.408 1769.91 952.286 1775.28 947.523ZM1787.52 959.767C1798.24 963.709 1798.24 967.79 1787.52 972.01C1783.19 968.235 1783.19 964.154 1787.52 959.767ZM1779.36 992.416C1786.28 993.171 1791.72 996.574 1795.69 1002.62C1791 1009.74 1785.55 1010.42 1779.36 1004.66C1775.03 1000.88 1775.03 996.803 1779.36 992.416Z" fill="black"/>
<path opacity="0.844" fill-rule="evenodd" clip-rule="evenodd" d="M1620.2 951.604C1625.64 951.604 1631.08 951.604 1636.52 951.604C1636.52 955.685 1636.52 959.766 1636.52 963.847C1641.96 963.847 1647.41 963.847 1652.85 963.847C1652.85 967.928 1652.85 972.009 1652.85 976.09C1647.41 976.09 1641.96 976.09 1636.52 976.09C1635.86 985.709 1636.54 995.231 1638.56 1004.66C1642.64 1010.1 1646.73 1010.1 1650.81 1004.66C1660.88 1015.89 1658.16 1021.33 1642.64 1020.98C1634.34 1021.58 1627.54 1018.86 1622.24 1012.82C1621.83 997.712 1618.43 983.428 1612.04 969.968C1616.96 964.663 1619.68 958.541 1620.2 951.604Z" fill="black"/>
<path opacity="0.798" fill-rule="evenodd" clip-rule="evenodd" d="M1558.98 963.846C1597.03 956.329 1612.67 971.294 1605.91 1008.74C1586.87 1025.06 1567.83 1025.06 1548.78 1008.74C1543.93 991.43 1547.33 976.465 1558.98 963.846ZM1571.23 976.089C1582.86 975.485 1589.67 980.93 1591.63 992.414C1582.11 1014.18 1572.58 1014.18 1563.06 992.414C1564.09 985.994 1566.81 980.554 1571.23 976.089Z" fill="black"/>
<path opacity="0.798" fill-rule="evenodd" clip-rule="evenodd" d="M1673.25 963.846C1711.3 956.329 1726.94 971.294 1720.19 1008.74C1701.14 1025.06 1682.1 1025.06 1663.05 1008.74C1658.2 991.43 1661.6 976.465 1673.25 963.846ZM1685.5 976.089C1697.14 975.485 1703.94 980.93 1705.9 992.414C1696.38 1014.18 1686.86 1014.18 1677.33 992.414C1678.36 985.994 1681.08 980.554 1685.5 976.089Z" fill="black"/>
<path opacity="0.851" fill-rule="evenodd" clip-rule="evenodd" d="M1942.61 963.847C1948.05 963.847 1953.49 963.847 1958.93 963.847C1958.93 982.893 1958.93 1001.94 1958.93 1020.98C1953.49 1020.98 1948.05 1020.98 1942.61 1020.98C1942.61 1001.94 1942.61 982.893 1942.61 963.847Z" fill="black"/>
<path opacity="0.816" fill-rule="evenodd" clip-rule="evenodd" d="M2056.88 963.848C2086.04 956.608 2102.37 967.492 2105.85 996.497C2090.82 995.823 2075.86 996.501 2060.96 998.537C2070.19 1011.37 2080.39 1012.05 2091.57 1000.58C2103.1 1006.36 2103.78 1012.48 2093.61 1018.94C2044.3 1024.77 2032.06 1006.41 2056.88 963.848ZM2069.12 976.091C2074.92 976.944 2080.36 978.985 2085.44 982.213C2077.28 984.935 2069.12 984.935 2060.96 982.213C2064.7 981.078 2067.41 979.038 2069.12 976.091Z" fill="black"/>
<path opacity="0.798" fill-rule="evenodd" clip-rule="evenodd" d="M2122.17 963.846C2160.22 956.329 2175.87 971.294 2169.11 1008.74C2150.06 1025.06 2131.02 1025.06 2111.97 1008.74C2107.12 991.43 2110.52 976.465 2122.17 963.846ZM2134.42 976.089C2146.06 975.485 2152.86 980.93 2154.82 992.414C2145.3 1014.18 2135.78 1014.18 2126.26 992.414C2127.28 985.994 2130 980.554 2134.42 976.089Z" fill="black"/>
</svg>
