<svg width="2854" height="1143" viewBox="0 0 2854 1143" fill="none" xmlns="http://www.w3.org/2000/svg">
<path fill-rule="evenodd" clip-rule="evenodd" d="M1086.79 0.218182C1118.56 -1.94152 1129.35 11.9324 1119.16 41.8399C1115.73 45.4795 1111.88 48.5595 1107.6 51.0891C1104.52 397.937 1104.52 744.784 1107.6 1091.63C1123.52 1103.18 1127.37 1117.82 1119.16 1135.57C1095.46 1148.76 1080.04 1142.59 1072.92 1117.07C1072.89 1107.06 1077.52 1100.13 1086.79 1096.26C1092.19 747.878 1092.95 399.49 1089.1 51.0891C1068.42 34.8613 1067.65 17.9028 1086.79 0.218182Z" fill="black"/>
<path fill-rule="evenodd" clip-rule="evenodd" d="M615.076 120.457C628.127 125.114 642.001 128.966 656.698 132.019C663.316 134.169 668.708 138.026 672.884 143.58C680.792 181.095 681.564 218.092 675.196 254.571C658.034 204.251 622.582 175.731 568.83 169.016C542.77 164.835 516.562 162.523 490.211 162.079C490.211 266.905 490.211 371.727 490.211 476.554C541.614 478.732 589.4 467.17 633.575 441.869C648.623 429.165 660.952 414.519 670.572 397.935C675.159 432.537 676.699 467.989 675.196 504.302C679.234 532.637 666.904 546.511 638.199 545.923C589.428 526.8 538.557 517.551 485.586 518.175C484.814 618.387 485.586 718.589 487.899 818.777C492.838 840.674 505.939 855.32 527.208 862.711C653.826 859.376 713.174 793.859 705.256 666.164C699.957 627.816 685.31 593.904 661.322 564.422C731.053 562.96 800.422 564.5 869.431 569.046C919.109 630.258 929.13 698.088 899.491 772.53C862.133 832.526 808.95 871.835 739.941 890.458C715.389 895.68 690.721 900.304 665.947 904.332C508.719 906.645 351.481 907.417 194.234 906.645C194.234 900.48 194.234 894.311 194.234 888.146C219.351 887.092 244.014 883.239 268.229 876.584C283.286 869.245 293.308 857.684 298.289 841.9C303.464 730.252 305.776 618.488 305.226 506.614C305.85 399.318 303.538 292.179 298.289 185.202C293.308 169.418 283.286 157.856 268.229 150.517C244.014 143.862 219.351 140.01 194.234 138.956C194.234 132.791 194.234 126.622 194.234 120.457C334.513 120.457 474.797 120.457 615.076 120.457Z" fill="black"/>
<path fill-rule="evenodd" clip-rule="evenodd" d="M781.562 157.454C831.786 186.885 864.158 230.047 878.68 286.944C872.233 297.155 862.984 304.092 850.932 307.755C828.211 313.975 805.088 317.827 781.562 319.316C781.562 265.361 781.562 211.41 781.562 157.454Z" fill="black"/>
<path fill-rule="evenodd" clip-rule="evenodd" d="M1424.39 296.195C1458.99 291.607 1494.44 290.067 1530.75 291.57C1546.96 340.943 1567 388.734 1590.87 434.934C1612.67 389.608 1632.72 343.362 1650.99 296.195C1684.8 290.807 1718.72 290.04 1752.74 293.883C1739.9 294.188 1729.88 299.58 1722.68 310.069C1719.59 377.898 1719.59 445.723 1722.68 513.553C1729.88 524.041 1739.9 529.434 1752.74 529.739C1711.11 532.824 1669.49 532.824 1627.87 529.739C1639.59 527.353 1649.61 521.956 1657.93 513.553C1661.02 448.808 1661.02 384.063 1657.93 319.318C1629.12 390.801 1599.06 461.715 1567.75 532.051C1560.14 526.136 1554.74 518.432 1551.56 508.928C1525.36 447.268 1499.15 385.603 1472.95 323.943C1469.86 385.603 1469.86 447.268 1472.95 508.928C1479.14 520.924 1489.16 527.861 1503.01 529.739C1476.8 532.824 1450.59 532.824 1424.39 529.739C1431.73 525.753 1439.44 522.668 1447.51 520.49C1450.71 515.555 1453.02 510.158 1454.45 504.303C1457.53 439.559 1457.53 374.814 1454.45 310.069C1446.43 301.046 1436.41 296.422 1424.39 296.195Z" fill="black"/>
<path fill-rule="evenodd" clip-rule="evenodd" d="M1160.78 296.195C1201.59 290.844 1243.21 290.072 1285.65 293.883C1272.61 294.197 1262.59 299.589 1255.59 310.069C1251.4 373.491 1252.94 436.696 1260.21 499.679C1286.11 528.809 1313.85 530.354 1343.46 504.303C1352.32 488.589 1356.94 471.63 1357.33 453.432C1360.41 407.186 1360.41 360.94 1357.33 314.693C1350.63 303.622 1340.62 296.685 1327.27 293.883C1353.48 290.798 1379.68 290.798 1405.89 293.883C1392.04 295.76 1382.02 302.697 1375.83 314.693C1374.29 368.649 1372.74 422.6 1371.2 476.556C1364.43 507.994 1345.16 527.26 1313.4 534.363C1270.8 545.028 1234.57 535.006 1204.72 504.303C1200.73 496.964 1197.65 489.255 1195.47 481.18C1193.93 424.145 1192.38 367.104 1190.84 310.069C1182.82 301.046 1172.8 296.422 1160.78 296.195Z" fill="black"/>
<path fill-rule="evenodd" clip-rule="evenodd" d="M2330.82 296.194C2360.93 290.099 2391.76 290.099 2423.31 296.194C2460.41 340.23 2496.64 384.932 2531.99 430.309C2535.07 393.311 2535.07 356.314 2531.99 319.317C2530.56 313.463 2528.25 308.066 2525.05 303.131C2516.98 300.953 2509.27 297.868 2501.93 293.882C2528.13 290.797 2554.34 290.797 2580.55 293.882C2573.21 297.868 2565.5 300.953 2557.42 303.131C2554.23 308.066 2551.91 313.463 2550.49 319.317C2549.71 391.818 2547.4 464.272 2543.55 536.675C2489.31 472.966 2436.13 408.221 2384 342.44C2379.74 401.284 2381.29 459.86 2388.62 518.177C2396.24 523.805 2404.72 527.657 2414.06 529.738C2387.85 532.823 2361.65 532.823 2335.44 529.738C2344 525.867 2352.48 522.01 2360.88 518.177C2368.25 453.691 2369.79 388.946 2365.5 323.942C2358.66 308.602 2347.09 299.353 2330.82 296.194Z" fill="black"/>
<path fill-rule="evenodd" clip-rule="evenodd" d="M2023.28 458.057C2043.17 333.794 1989.98 276.758 1863.73 286.946C1825.97 299.243 1799 323.906 1782.8 360.94C1761.71 430.259 1780.97 484.987 1840.6 525.115C1921.83 555.614 1982.71 533.263 2023.28 458.057ZM1949.28 328.567C1935.46 308.676 1916.19 299.427 1891.48 300.819C1879.78 305.481 1869.76 313.185 1861.42 323.942C1840.01 369.948 1835.39 417.734 1847.54 467.306C1865.69 524.744 1898.07 535.538 1944.66 499.678C1969.87 443.262 1971.41 386.227 1949.28 328.567Z" fill="black"/>
<path fill-rule="evenodd" clip-rule="evenodd" d="M2305.38 458.057C2325.27 333.794 2272.09 276.758 2145.83 286.946C2108.07 299.243 2081.1 323.906 2064.9 360.94C2043.81 430.259 2063.08 484.987 2122.71 525.115C2203.93 555.614 2264.82 533.263 2305.38 458.057ZM2231.39 328.567C2217.57 308.676 2198.3 299.427 2173.58 300.819C2161.89 305.481 2151.87 313.185 2143.52 323.942C2122.12 369.948 2117.49 417.734 2129.64 467.306C2147.79 524.744 2180.17 535.538 2226.76 499.678C2251.97 443.262 2253.51 386.227 2231.39 328.567Z" fill="black"/>
<path fill-rule="evenodd" clip-rule="evenodd" d="M874.055 360.938C857.795 408.031 826.963 441.948 781.562 462.68C781.562 422.598 781.562 382.521 781.562 342.439C803.192 343.989 824.775 346.301 846.307 349.376C857.184 350.486 866.434 354.339 874.055 360.938Z" fill="black"/>
<path fill-rule="evenodd" clip-rule="evenodd" d="M869.431 570.839C800.422 566.293 731.053 564.753 661.323 566.214C645.909 566.214 630.49 566.214 615.076 566.214C615.076 561.589 615.076 556.965 615.076 552.34C623.932 553.654 631.637 552.114 638.199 547.715C666.904 548.303 679.234 534.429 675.196 506.094C681.361 466.012 681.361 425.935 675.196 385.853C675.196 342.692 675.196 299.525 675.196 256.364C681.565 219.885 680.792 182.887 672.884 145.372C668.708 139.818 663.316 135.961 656.698 133.811C642.001 130.759 628.127 126.906 615.076 122.249C661.221 116.089 709.007 113.005 758.44 113C806.226 113.772 854.017 114.54 901.803 115.312C994.592 132.386 1027.74 185.57 1001.23 274.862C979.183 302.485 950.663 320.211 915.677 328.045C948.947 336.541 979.007 351.187 1005.86 371.979C1039.75 419.59 1039.75 467.376 1005.86 515.343C965.781 547.951 920.307 566.45 869.431 570.839ZM878.68 286.943C872.234 297.155 862.984 304.092 850.932 307.755C828.211 313.975 805.088 317.827 781.563 319.316V157.453V134.33C879.67 132.947 915.895 179.193 890.242 273.069C886.301 278.022 882.45 282.646 878.68 286.943ZM781.563 462.68V342.439C803.193 343.989 824.776 346.301 846.308 349.376C857.185 350.486 866.434 354.339 874.055 360.938C919.165 409.488 922.25 461.131 883.306 515.864C867.18 529.331 848.681 536.268 827.81 536.675C814.5 529.252 800.626 523.083 786.189 518.176C781.888 500.14 780.348 481.641 781.563 462.68Z" fill="#AAAAAA"/>
<path fill-rule="evenodd" clip-rule="evenodd" d="M2723.91 286.945C2728.52 286.807 2731.6 289.119 2733.16 293.882C2763.86 365.948 2795.46 437.63 2827.96 508.928C2835.1 517.613 2843.58 524.55 2853.4 529.739C2813.32 532.823 2773.24 532.823 2733.16 529.739C2742.11 525.979 2751.36 523.666 2760.91 522.802C2756.61 505.302 2750.44 488.344 2742.41 471.931C2714.79 466.548 2687.04 465.78 2659.16 469.618C2648.61 484.311 2644.75 500.497 2647.6 518.177C2656.6 524.48 2666.62 528.337 2677.66 529.739C2649.91 532.823 2622.17 532.823 2594.42 529.739C2606.77 523.958 2616.79 515.481 2624.48 504.303C2657.69 431.729 2690.83 359.279 2723.91 286.945ZM2696.16 379.437C2711.81 399.887 2724.14 423.01 2733.16 448.806C2710.19 454.18 2687.06 454.952 2663.79 451.118C2677.76 428.569 2688.56 404.673 2696.16 379.437Z" fill="black"/>
<path fill-rule="evenodd" clip-rule="evenodd" d="M675.197 384.062C681.362 424.143 681.362 464.22 675.197 504.302C676.7 467.989 675.16 432.537 670.572 397.935C673.393 393.815 674.933 389.19 675.197 384.062Z" fill="black"/>
<path fill-rule="evenodd" clip-rule="evenodd" d="M786.188 518.176C800.626 523.083 814.5 529.252 827.809 536.674C808.164 544.596 794.29 538.432 786.188 518.176Z" fill="black"/>
<path fill-rule="evenodd" clip-rule="evenodd" d="M1692.62 786.404C1704.95 784.397 1710.34 789.021 1708.8 800.278C1692.17 807.52 1686.78 802.895 1692.62 786.404ZM2432.56 786.404C2444.89 784.397 2450.29 789.021 2448.75 800.278C2432.11 807.52 2426.72 802.895 2432.56 786.404ZM1623.25 786.404C1629.41 786.404 1635.58 786.404 1641.74 786.404C1640.99 797.305 1641.76 808.094 1644.06 818.777C1656.04 811.923 1666.83 813.468 1676.43 823.401C1678.74 840.291 1679.5 857.244 1678.74 874.272C1672.58 874.272 1666.41 874.272 1660.24 874.272C1660.24 858.858 1660.24 843.44 1660.24 828.026C1654.08 828.026 1647.91 828.026 1641.74 828.026C1641.74 843.44 1641.74 858.858 1641.74 874.272C1635.58 874.272 1629.41 874.272 1623.25 874.272C1623.25 844.985 1623.25 815.692 1623.25 786.404ZM2141.21 791.031C2156.97 787.923 2169.3 792.547 2178.2 804.904C2171.94 816.646 2165 816.646 2157.39 804.904C2152.5 805.506 2148.64 807.818 2145.83 811.841C2152.66 824.064 2161.91 834.086 2173.58 841.901C2177.68 838.086 2179.22 833.462 2178.2 828.028C2182.83 828.028 2187.45 828.028 2192.08 828.028C2183.29 845.513 2186.37 860.16 2201.33 871.962C2178.4 870.801 2155.28 870.801 2131.96 871.962C2118.81 855.225 2120.35 839.811 2136.58 825.715C2130.03 813.03 2131.57 801.468 2141.21 791.031ZM1466.01 791.03C1473.61 790.04 1480.55 791.585 1486.82 795.655C1495.95 821.534 1505.97 846.97 1516.88 871.961C1501.04 877.687 1493.33 872.29 1493.76 855.775C1481.05 854.328 1468.72 855.868 1456.76 860.4C1452.33 872.655 1444.62 875.74 1433.64 869.649C1443.56 842.937 1454.35 816.729 1466.01 791.03ZM1729.61 795.653C1734.24 795.653 1738.86 795.653 1743.49 795.653C1743.49 801.818 1743.49 807.987 1743.49 814.152C1748.11 814.152 1752.74 814.152 1757.36 814.152C1757.36 818.776 1757.36 823.401 1757.36 828.026C1752.74 828.026 1748.11 828.026 1743.49 828.026C1743.49 838.815 1743.49 849.609 1743.49 860.398C1748.11 860.398 1752.74 860.398 1757.36 860.398C1757.36 865.023 1757.36 869.647 1757.36 874.272C1745.43 876.201 1735.41 873.116 1727.3 865.023C1727.18 848.337 1723.33 832.919 1715.74 818.776C1723.96 813.107 1728.59 805.397 1729.61 795.653ZM1891.47 795.653C1896.1 795.653 1900.72 795.653 1905.35 795.653C1905.35 801.818 1905.35 807.987 1905.35 814.152C1909.97 814.152 1914.6 814.152 1919.22 814.152C1919.22 818.776 1919.22 823.401 1919.22 828.026C1914.6 828.026 1909.97 828.026 1905.35 828.026C1905.35 838.815 1905.35 849.609 1905.35 860.398C1909.97 860.398 1914.6 860.398 1919.22 860.398C1919.22 865.023 1919.22 869.647 1919.22 874.272C1907.3 876.201 1897.27 873.116 1889.16 865.023C1889.04 848.337 1885.19 832.919 1877.6 818.776C1885.82 813.107 1890.45 805.397 1891.47 795.653ZM2229.07 791.027C2251.26 789.274 2272.84 791.586 2293.82 797.964C2312.32 821.087 2312.32 844.21 2293.82 867.333C2272.84 873.711 2251.26 876.023 2229.07 874.27C2229.07 846.522 2229.07 818.775 2229.07 791.027ZM2252.2 804.904C2276.56 798.61 2288.89 807.859 2289.19 832.652C2288.89 857.444 2276.56 866.693 2252.2 860.399C2252.2 841.901 2252.2 823.402 2252.2 804.904ZM1780.48 814.152C1801.91 809.333 1816.55 817.042 1824.42 837.275C1832.11 816.288 1846.76 809.352 1868.35 816.464C1870.46 818.379 1872.01 820.691 1872.97 823.401C1863.73 826.486 1854.48 829.566 1845.23 832.65C1837.56 855.787 1845.26 863.497 1868.35 855.774C1880.04 860.477 1880.04 865.874 1868.35 871.96C1845.43 878.999 1830.02 871.289 1822.1 848.837C1808.23 845.752 1794.36 845.752 1780.48 848.837C1788.4 860.486 1798.42 862.798 1810.54 855.774C1816.23 859.358 1817.77 863.982 1815.17 869.648C1776.55 881.912 1761.14 868.038 1768.92 828.026C1772.15 822.518 1776 817.893 1780.48 814.152ZM2053.34 814.152C2079.44 809.439 2093.31 820.228 2094.96 846.524C2081 845.761 2067.13 846.533 2053.34 848.836C2061.26 860.486 2071.28 862.798 2083.4 855.773C2090.88 860.564 2091.65 865.961 2085.71 871.959C2047.94 880.436 2033.3 865.795 2041.78 828.025C2045 822.518 2048.86 817.893 2053.34 814.152ZM2330.82 814.152C2356.92 809.439 2370.79 820.228 2372.44 846.524C2358.48 845.761 2344.61 846.533 2330.82 848.836C2338.73 860.486 2348.75 862.798 2360.88 855.773C2368.35 860.564 2369.13 865.961 2363.19 871.959C2325.42 880.436 2310.78 865.795 2319.25 828.025C2322.48 822.518 2326.33 817.893 2330.82 814.152ZM2386.31 814.154C2395.68 813.405 2404.93 814.177 2414.06 816.466C2416.17 818.381 2417.72 820.693 2418.68 823.403C2409.79 827.14 2400.54 829.452 2390.94 830.34C2399.94 834.886 2408.43 840.283 2416.37 846.526C2418.62 871.925 2407.06 880.402 2381.69 871.962C2379.57 870.047 2378.03 867.735 2377.06 865.025C2385.95 861.288 2395.2 858.976 2404.81 858.088C2396.72 852.113 2388.24 846.72 2379.37 841.901C2375.94 830.923 2378.25 821.673 2386.31 814.154ZM2520.42 814.152C2532.03 819.585 2543.59 819.585 2555.11 814.152C2563.02 813.869 2569.19 816.954 2573.61 823.401C2575.92 840.29 2576.68 857.244 2575.92 874.272C2569.76 874.272 2563.59 874.272 2557.42 874.272C2557.42 858.858 2557.42 843.439 2557.42 828.025C2551.26 828.025 2545.09 828.025 2538.92 828.025C2538.92 843.439 2538.92 858.858 2538.92 874.272C2532.76 874.272 2526.59 874.272 2520.42 874.272C2520.42 854.233 2520.42 834.19 2520.42 814.152ZM1470.63 814.152C1480.06 820.678 1484.69 829.927 1484.51 841.9C1478.34 841.9 1472.17 841.9 1466.01 841.9C1467.55 832.651 1469.09 823.402 1470.63 814.152ZM1521.5 814.152C1535.5 818.217 1549.38 819.762 1563.13 818.777C1557.78 825.483 1550.85 830.107 1542.31 832.651C1540.01 846.442 1539.24 860.315 1540 874.273C1533.84 874.273 1527.67 874.273 1521.5 874.273C1521.5 854.234 1521.5 834.191 1521.5 814.152ZM1581.63 814.152C1621.07 815.817 1622.62 821.986 1586.25 832.651C1579.17 845.332 1582.25 854.581 1595.5 860.399C1604.25 854.327 1611.96 855.099 1618.62 862.711C1596.22 880.428 1578.49 876.576 1565.44 851.149C1564.5 836.073 1569.89 823.739 1581.63 814.152ZM1692.62 814.152C1697.24 814.152 1701.86 814.152 1706.49 814.152C1706.49 834.191 1706.49 854.234 1706.49 874.273C1701.86 874.273 1697.24 874.273 1692.62 874.273C1692.62 854.234 1692.62 834.191 1692.62 814.152ZM1928.47 814.152C1934.64 814.152 1940.8 814.152 1946.97 814.152C1946.97 829.566 1946.97 844.985 1946.97 860.399C1953.13 860.399 1959.3 860.399 1965.47 860.399C1965.47 844.985 1965.47 829.566 1965.47 814.152C1971.63 814.152 1977.8 814.152 1983.97 814.152C1983.97 834.191 1983.97 854.234 1983.97 874.273C1967.8 873.024 1951.61 871.479 1935.41 869.648C1929.15 851.783 1926.83 833.284 1928.47 814.152ZM1993.22 814.152C2007.22 818.217 2021.09 819.762 2034.84 818.777C2029.5 825.483 2022.56 830.107 2014.03 832.651C2011.72 846.442 2010.95 860.315 2011.72 874.273C2005.55 874.273 1999.38 874.273 1993.22 874.273C1993.22 854.234 1993.22 834.191 1993.22 814.152ZM2432.56 814.152C2437.18 814.152 2441.81 814.152 2446.43 814.152C2446.43 834.191 2446.43 854.234 2446.43 874.273C2441.81 874.273 2437.18 874.273 2432.56 874.273C2432.56 854.234 2432.56 834.191 2432.56 814.152ZM2469.56 814.152C2484.97 814.152 2500.39 814.152 2515.8 814.152C2513.32 837.021 2500.99 850.127 2478.8 853.462C2495.21 853.975 2507.54 860.912 2515.8 874.273C2503.38 891.911 2486.42 897.303 2464.93 890.459C2453.36 882.208 2453.36 874.499 2464.93 867.336C2463.95 855.917 2462.41 844.356 2460.31 832.651C2461.47 825.376 2464.55 819.212 2469.56 814.152ZM2474.18 828.024C2481.01 826.812 2487.18 828.352 2492.68 832.649C2489.59 834.189 2486.51 835.733 2483.43 837.273C2477.82 836.131 2474.73 833.046 2474.18 828.024ZM2141.21 837.275C2149.51 843.255 2157.22 850.192 2164.33 858.086C2141.7 865.402 2133.99 858.465 2141.21 837.275ZM2474.18 869.649C2483.1 868.405 2490.8 870.717 2497.3 876.586C2493.45 877.358 2489.59 878.126 2485.74 878.898C2479.38 878.047 2475.52 874.962 2474.18 869.649Z" fill="black"/>
<path fill-rule="evenodd" clip-rule="evenodd" d="M18.4985 1091.63C33.598 1090.7 45.9272 1096.1 55.4956 1107.82C354.557 1110.9 653.613 1110.9 952.674 1107.82C974.456 1085.13 991.41 1088.22 1003.55 1117.06C1001.23 1131.71 992.756 1140.19 978.11 1142.5C967.149 1142.04 958.673 1137.41 952.674 1128.63C653.627 1123.23 354.566 1122.46 55.4956 1126.31C32.5204 1149.46 14.0219 1146.38 0 1117.06C2.34469 1105.29 8.51395 1096.81 18.4985 1091.63Z" fill="black"/>
</svg>
