<svg width="876" height="1271" viewBox="0 0 876 1271" fill="none" xmlns="http://www.w3.org/2000/svg">
<path fill-rule="evenodd" clip-rule="evenodd" d="M409.96 0H411.894C405.59 4.04494 399.145 7.99313 392.556 11.8446C370.654 26.3336 351.881 44.1408 336.235 65.2663C321.544 86.1316 313.164 109.337 311.096 134.884C310.774 203.695 310.774 272.507 311.096 341.318C353.323 298.365 395.624 255.499 438 212.72C482.631 255.498 527.191 298.364 571.672 341.318C571.996 271.379 571.996 201.439 571.672 131.499C566.64 91.7005 549.318 58.423 519.702 31.6662C505.305 19.2842 489.675 8.72884 472.808 0H475.709C535.844 5.4714 587.737 28.8384 631.377 70.1008C631.861 70.2618 632.185 70.5843 632.344 71.0677C635.245 73.646 637.986 76.3857 640.563 79.2864C653.51 92.8734 664.788 107.699 674.404 123.764C678.112 128.921 681.337 134.4 684.073 140.202C695.284 160.201 703.904 181.311 709.937 203.534C712.881 216.101 714.655 228.832 715.255 241.727C715.335 283.304 715.416 324.881 715.497 366.458C715.578 408.035 715.659 449.612 715.738 491.189C717.696 493.384 719.548 495.642 721.298 497.957C734.946 514.124 748.482 530.402 761.907 546.786C767.544 553.535 773.181 560.304 778.828 567.091C811.103 606.019 843.493 644.855 876 683.604V684.087C843.334 655.902 810.943 627.378 778.828 598.516C773.031 593.686 767.39 588.692 761.907 583.529C748.216 571.771 734.68 559.844 721.298 547.753C711.675 539.25 702.057 530.758 692.448 522.273L684.073 514.878C680.694 512.142 677.469 509.241 674.404 506.176C662.966 496.352 651.687 486.359 640.563 476.202C637.667 473.951 634.926 471.533 632.344 468.95C631.861 468.789 631.537 468.467 631.377 467.983L591.229 432.552L590.141 431.592C539.433 386.843 488.718 342.087 438 297.324C380.944 347.775 323.898 398.216 266.861 448.645C259.591 455.271 252.178 461.718 244.623 467.983C221.895 488.453 199.013 508.758 175.974 528.898C174.469 530.262 172.954 531.641 171.432 533.027L170.656 533.733C166.125 537.944 161.452 541.971 156.636 545.819C108.546 588.668 60.3633 631.453 12.0861 674.176C8.10915 677.594 4.08046 680.896 0 684.087V683.604C26.106 653.55 52.2119 623.495 78.3179 593.44C104.424 563.384 130.53 533.329 156.636 503.275C160.18 499.326 163.645 495.298 167.03 491.189L167.272 367.908C167.352 326.815 167.433 285.721 167.513 244.628C167.633 234.309 168.681 224.156 170.656 214.17C171.757 206.385 173.529 198.811 175.974 191.448C189.078 150.88 209.302 114.46 236.646 82.1871C239.09 79.2255 241.749 76.4858 244.623 73.9684C251.44 66.3434 258.853 59.4136 266.861 53.1799C301.585 24.8015 341.389 7.80003 386.272 2.17554C394.23 1.3115 402.127 0.586318 409.96 0ZM435.583 386.763H376.603V445.744H435.583V386.763ZM440.417 386.763H499.397V445.744H440.417V386.763ZM306.987 435.108C293.485 446.928 280.11 458.854 266.861 470.884C259.302 477.153 251.89 483.599 244.623 490.222C221.72 510.373 198.837 530.513 175.974 550.654C174.09 552.157 172.317 553.767 170.656 555.488C168.419 557.156 166.244 558.931 164.129 560.806C163.807 644.284 163.807 727.758 164.129 811.235C164.623 825.899 166.799 840.243 170.656 854.263C171.957 860.098 173.73 865.74 175.974 871.184C179.729 882.081 184.16 892.717 189.268 903.092C203.448 932.437 221.899 958.708 244.623 981.895C251.457 989.214 258.87 995.823 266.861 1001.72C270.681 1005.08 274.71 1008.22 278.947 1011.14C318.052 1037.36 361.24 1050.9 408.51 1051.75C379.094 1036.52 354.358 1015.66 334.301 989.146C319.105 968.247 310.242 944.881 307.712 919.046C307.631 757.732 307.389 596.422 306.987 435.108ZM568.772 435.108C589.734 453.414 610.604 471.786 631.377 490.222C631.861 490.382 632.185 490.706 632.344 491.189C635.24 493.442 637.981 495.859 640.563 498.441C652.001 508.265 663.28 518.258 674.404 528.415C677.914 530.794 681.138 533.535 684.073 536.634C693.249 544.678 702.434 552.738 711.629 560.806C712.195 643.637 712.272 726.471 711.871 809.302C711.32 831.076 707.293 852.189 699.785 872.634C695.24 884.59 690 896.193 684.073 907.443C681.216 913.641 677.996 919.602 674.404 925.331C664.899 942.247 653.621 957.882 640.563 972.226C638.165 975.431 635.424 978.332 632.344 980.928C632.185 981.411 631.861 981.735 631.377 981.895C586.325 1026.99 531.696 1050.27 467.49 1051.75C500.214 1034.83 526.881 1011.06 547.5 980.444C559.446 961.362 566.378 940.574 568.288 918.079C568.368 837.584 568.449 757.089 568.53 676.594C568.611 596.099 568.692 515.603 568.772 435.108ZM435.583 450.579H376.603V510.044H435.583V450.579ZM440.417 450.579H499.397V510.044H440.417V450.579ZM120.377 1209.6H156.636L170.656 1209.6L175.974 1209.6V1164.64C174.158 1163.93 172.385 1163.12 170.656 1162.22C172.399 1161.74 174.172 1161.58 175.974 1161.74C181.14 1161.58 186.297 1161.74 191.444 1162.22C189.781 1163.07 188.089 1163.88 186.368 1164.64C186.045 1198.32 186.045 1232 186.368 1265.68C187.994 1266.62 189.686 1267.43 191.444 1268.1C186.297 1268.58 181.14 1268.74 175.974 1268.58C174.172 1268.74 172.399 1268.58 170.656 1268.1C172.478 1267.38 174.251 1266.58 175.974 1265.68V1213.47L170.656 1213.47L156.636 1213.47H120.377C120.297 1230.87 120.377 1248.28 120.619 1265.68C122.246 1266.62 123.938 1267.43 125.695 1268.1C118.766 1268.74 111.836 1268.74 104.907 1268.1C106.665 1267.43 108.357 1266.62 109.983 1265.68C110.306 1232 110.306 1198.32 109.983 1164.64C108.327 1163.73 106.635 1162.92 104.907 1162.22C111.836 1161.58 118.766 1161.58 125.695 1162.22C124.032 1163.07 122.34 1163.88 120.619 1164.64C120.377 1179.63 120.297 1194.61 120.377 1209.6ZM494.08 1271H567.08V1261.81H565.629C565.537 1263.54 565.054 1265.15 564.179 1266.65C546.132 1267.13 528.085 1267.29 510.033 1267.13C509.951 1233.45 510.033 1199.77 510.275 1166.09C511.899 1165.15 513.591 1164.34 515.351 1163.67C508.259 1163.03 501.172 1163.03 494.08 1163.67C495.888 1164.38 497.662 1165.19 499.397 1166.09C500.04 1200.09 500.04 1234.1 499.397 1268.1C497.889 1269.01 496.279 1269.66 494.563 1270.03C494.176 1270.26 494.017 1270.57 494.08 1271ZM761.907 1203.8C761.97 1204.16 761.888 1204.48 761.666 1204.77C755.376 1210.98 749.169 1217.26 743.053 1223.62C749.463 1233.06 755.748 1242.57 761.907 1252.15C765.277 1256.89 768.579 1261.73 771.818 1266.65C772.993 1267.68 774.366 1268.32 775.927 1268.58C771.267 1269.07 766.592 1269.23 761.907 1269.07C760.423 1269.22 758.973 1269.06 757.556 1268.58C758.306 1268.12 759.108 1267.96 759.974 1268.1C752.412 1255.57 744.358 1243.32 735.801 1231.36C734.68 1232.24 733.636 1233.2 732.659 1234.26C732.335 1245.22 732.335 1256.17 732.659 1267.13C733.795 1267.77 735.004 1268.25 736.285 1268.58C730.483 1269.23 724.682 1269.23 718.881 1268.58C720.162 1268.25 721.371 1267.77 722.507 1267.13C722.831 1233.13 722.831 1199.12 722.507 1165.12C721.371 1164.49 720.162 1164.01 718.881 1163.67C724.682 1163.03 730.483 1163.03 736.285 1163.67C735.057 1164.12 733.848 1164.61 732.659 1165.12C732.335 1186.4 732.335 1207.67 732.659 1228.94C742.342 1218.85 752.093 1208.86 761.907 1198.97C763.42 1197.21 765.03 1195.52 766.742 1193.89C766.133 1193.44 765.49 1193.04 764.808 1192.68C768.352 1192.04 771.9 1192.04 775.444 1192.68C774.346 1193.16 773.215 1193.56 772.06 1193.89C768.738 1197.29 765.354 1200.59 761.907 1203.8ZM244.623 1190.75C232.004 1187.57 220.401 1189.74 209.815 1197.27C200.687 1206.28 196.497 1217.24 197.245 1230.15C196.395 1243.24 200.746 1254.2 210.298 1263.02C220.733 1270.19 232.175 1272.36 244.623 1269.55C255.404 1266.66 262.817 1260.05 266.861 1249.73C268.165 1247.35 269.051 1244.77 269.52 1241.99C270.178 1237.99 270.581 1233.96 270.728 1229.91C270.784 1222.81 269.495 1216.05 266.861 1209.6C262.704 1199.48 255.291 1193.2 244.623 1190.75ZM259.851 1241.03C258.774 1251.74 253.698 1259.8 244.623 1265.2C226.853 1270.38 215.009 1264.25 209.09 1246.83C206.651 1237.07 206.329 1227.24 208.123 1217.34C212.494 1196.99 224.661 1189.57 244.623 1195.1C250.446 1197.78 254.555 1202.13 256.95 1208.15C260.557 1218.85 261.524 1229.81 259.851 1241.03ZM308.437 1189.3C315.729 1188.82 322.336 1190.67 328.258 1194.86C330.082 1196.65 331.613 1198.67 332.851 1200.9C343.117 1189 355.445 1186.34 369.834 1192.92C375.797 1197.02 379.101 1202.75 379.745 1210.08C379.987 1229.1 380.067 1248.12 379.987 1267.13C381.318 1267.27 382.607 1267.59 383.854 1268.1C378.053 1268.74 372.252 1268.74 366.45 1268.1C367.4 1267.72 368.367 1267.39 369.351 1267.13C369.915 1246.51 369.995 1225.88 369.593 1205.25C368.773 1196.62 364.02 1192.59 355.331 1193.16C346.734 1193.62 339.885 1197.33 334.785 1204.28C334.906 1205.26 335.028 1206.25 335.151 1207.24C335.348 1208.82 335.548 1210.41 335.752 1212.02C335.832 1230.39 336.074 1248.76 336.477 1267.13C337.461 1267.39 338.428 1267.72 339.377 1268.1C333.576 1268.74 327.775 1268.74 321.974 1268.1C323.221 1267.59 324.51 1267.27 325.841 1267.13C326.064 1245.85 325.823 1224.57 325.116 1203.32C323.505 1196 318.912 1192.61 311.338 1193.16C302.305 1193.45 295.295 1197.32 290.308 1204.77C289.905 1225.56 289.985 1246.34 290.55 1267.13C291.533 1267.39 292.5 1267.72 293.45 1268.1C287.649 1268.74 281.848 1268.74 276.046 1268.1C277.294 1267.59 278.582 1267.27 279.914 1267.13V1192.68C278.582 1192.55 277.294 1192.22 276.046 1191.71C280.709 1191.23 285.382 1191.07 290.066 1191.23C289.986 1193.81 290.067 1196.39 290.308 1198.97C295.263 1193.63 301.306 1190.4 308.437 1189.3ZM459.029 1215.4C453.543 1197.43 441.377 1188.73 422.529 1189.3C408.761 1190.66 398.85 1197.59 392.798 1210.08C389.038 1220.49 388.233 1231.12 390.38 1241.99C394.822 1260.37 406.505 1269.72 425.43 1270.03C442.732 1270.78 454.254 1263.04 459.996 1246.83C461.178 1246.15 462.387 1245.5 463.622 1244.89C460.077 1244.25 456.531 1244.25 452.986 1244.89C454.083 1245.53 455.211 1246.09 456.371 1246.59C453.972 1254.13 449.299 1259.77 442.351 1263.51C414.849 1272.56 400.669 1262.65 399.808 1233.77C420.113 1233.66 440.417 1233.5 460.721 1233.29C461.198 1227.25 460.634 1221.29 459.029 1215.4ZM448.394 1202.83C440.927 1195.16 431.823 1191.94 421.079 1193.16C415.919 1194.42 411.488 1196.99 407.784 1200.9C401.668 1209.57 399.009 1219.24 399.808 1229.91C416.893 1230.07 433.974 1229.91 451.053 1229.42C451.655 1223.31 451.574 1217.18 450.811 1211.05C450.53 1208.15 449.724 1205.41 448.394 1202.83ZM595.603 1195.82C613.108 1192.32 625.03 1198.85 631.377 1215.4C631.411 1216.82 631.73 1218.11 632.344 1219.27C633.635 1227.49 633.635 1235.71 632.344 1243.93C631.808 1244.94 631.484 1246.07 631.377 1247.31C627.031 1260.43 617.928 1267.52 604.063 1268.58C593.848 1268.34 585.953 1263.99 580.374 1255.53C574.761 1243.97 573.311 1231.88 576.023 1219.27C578.015 1207.61 584.541 1199.8 595.603 1195.82ZM631.377 1258.43C631.813 1258.05 632.136 1257.56 632.344 1256.98C638.126 1249.5 640.867 1240.95 640.563 1231.36C640.901 1221.9 638.16 1213.52 632.344 1206.22C632.378 1205.48 632.059 1204.99 631.377 1204.77C625.852 1198.05 618.764 1193.94 610.106 1192.44C595.772 1190.5 584.092 1195.09 575.056 1206.22C567.887 1217.55 565.793 1229.8 568.771 1242.96C572.919 1258.79 582.989 1268.14 598.987 1271H609.139C618.112 1269.57 625.523 1265.39 631.377 1258.43ZM659.659 1251.18C660.679 1260.18 665.596 1265.49 674.404 1267.13C677.725 1267.17 680.945 1266.69 684.073 1265.68C690.682 1263.03 695.917 1258.68 699.785 1252.63C700.109 1233.13 700.109 1213.63 699.785 1194.13C698.596 1193.61 697.387 1193.13 696.159 1192.68C701.96 1192.04 707.762 1192.04 713.563 1192.68C712.335 1193.13 711.126 1193.61 709.937 1194.13C709.613 1218.46 709.613 1242.8 709.937 1267.13C711.073 1267.77 712.282 1268.25 713.563 1268.58C709.062 1269.07 704.552 1269.23 700.026 1269.07C700.109 1265.52 700.026 1261.97 699.785 1258.43C695.535 1263.57 690.295 1267.28 684.073 1269.55C680.901 1270.3 677.677 1270.62 674.404 1270.52C660.08 1269.81 651.784 1262.4 649.507 1248.28C649.427 1239.25 649.346 1230.23 649.265 1221.2C649.184 1212.18 649.103 1203.15 649.023 1194.13C647.834 1193.61 646.625 1193.13 645.397 1192.68C651.199 1192.04 657 1192.04 662.801 1192.68C661.573 1193.13 660.365 1193.61 659.175 1194.13C658.721 1213.16 658.885 1232.17 659.659 1251.18Z" fill="black"/>
</svg>
