<svg width="1453" height="1037" viewBox="0 0 1453 1037" fill="none" xmlns="http://www.w3.org/2000/svg">
<path opacity="0.835" fill-rule="evenodd" clip-rule="evenodd" d="M665.043 2.75935C771.906 -8.09465 871.573 13.0724 964.043 66.2594C983.953 78.7474 1002.95 92.5804 1021.04 107.759C1022.45 109.276 1022.28 110.61 1020.54 111.759C929.854 52.1194 829.688 24.6193 720.043 29.2593C639.794 32.9273 564.794 54.2604 495.043 93.2594C371.476 167.031 293.309 274.531 260.543 415.759C243.457 497.999 245.79 579.666 267.543 660.759C271.264 672.531 275.264 684.198 279.543 695.759C373.81 641.714 468.643 588.88 564.043 537.259C634.971 496.627 706.638 457.294 779.043 419.259C780.527 417.685 782.194 416.352 784.043 415.259C997.423 299.565 1211.75 185.398 1427.04 72.7594C1428.64 73.2944 1429.14 74.2944 1428.54 75.7594C1156.07 232.096 881.576 385.596 605.043 536.259C479.875 603.314 354.542 670.647 229.043 738.259C153.875 777.339 78.8751 816.679 4.04306 856.259C2.74986 856.749 1.41646 856.919 0.0430582 856.759C-0.126942 855.439 0.206458 854.269 1.04306 853.259C92.5151 801.019 184.182 749.019 276.043 697.259C254.759 654.067 240.259 608.567 232.543 560.759C215.813 424.046 248.146 300.712 329.543 190.759C415.817 83.4944 527.65 20.8274 665.043 2.75935Z" fill="black"/>
<path opacity="0.843" fill-rule="evenodd" clip-rule="evenodd" d="M1449.04 137.76C1450.04 137.76 1451.04 137.76 1452.04 137.76C1452.19 138.812 1452.02 139.812 1451.54 140.76C1423.11 159.556 1394.95 178.722 1367.04 198.26C1289.37 261.446 1248.7 343.613 1245.04 444.76C1246.11 471.146 1247.95 497.48 1250.54 523.76C1251.71 692.875 1186.88 829.71 1056.04 934.26C941.512 1018.38 813.178 1050.72 671.043 1031.26C535.788 1006.69 428.622 938.52 349.543 826.76C348.047 824.81 347.88 822.81 349.043 820.76C373.199 848.42 399.199 874.25 427.043 898.26C512.592 965.8 610.259 1002.46 720.043 1008.26C872.801 1009.62 1000.3 954.46 1102.54 842.76C1190.63 738.145 1229.29 617.145 1218.54 479.76C1214.27 371.417 1251.77 281.417 1331.04 209.76C1112.79 333.571 893.79 455.737 674.043 576.26C460.356 691.935 246.023 806.27 31.0426 919.26C29.4058 919.86 27.7392 920.36 26.0426 920.76C24.6109 920.53 24.1109 919.86 24.5426 918.76C241.955 793.14 460.788 670.311 681.043 550.26C682.527 548.686 684.194 547.353 686.043 546.26C939.135 408.043 1193.47 271.877 1449.04 137.76Z" fill="black"/>
</svg>
