<svg width="992" height="1112" viewBox="0 0 992 1112" fill="none" xmlns="http://www.w3.org/2000/svg">
<path d="M603.525 21.941L256.043 23.0185L742.86 48.9755L782.971 851.244L784.342 390.384L808.732 874.556L809.614 22.2349H784.195V0L230.625 0.489748L603.525 21.941Z" fill="black"/>
<path d="M279.7 111.418L651.473 89.0361H0V1089.07L26.1534 611.262L27.0346 1111.69L74.6877 146.386L676.646 112.446L279.7 111.418Z" fill="black"/>
<path d="M579.331 429.564H179.789L548.771 449.987L205.746 451.31L550.583 470.557L578.499 1045.68L579.87 585.454L604.603 1068.45V450.232H579.184L579.331 429.564Z" fill="black"/>
<path d="M949.98 606.268L950.518 616.063H769.113L950.518 626.642L967.317 940.967L967.121 628.062H974.517L991.658 957.031L992.001 616.063H968.002V593.828L744.086 595.199L949.98 606.268Z" fill="black"/>
</svg>
