<svg width="1253" height="983" viewBox="0 0 1253 983" fill="none" xmlns="http://www.w3.org/2000/svg">
<path fill-rule="evenodd" clip-rule="evenodd" d="M45.7426 22.5123C50.7982 25.8511 53.3781 30.5407 53.4837 36.5824C56.1001 38.1218 58.915 39.2938 61.9284 40.1C64.1353 43.3418 65.7778 46.8593 66.8545 50.6526C68.4435 52.9616 70.5547 54.3686 73.1881 54.8737C83.6976 58.8457 94.4887 61.6597 105.56 63.3161C112.311 63.8493 118.88 63.1458 125.264 61.2056C129.121 51.7222 136.158 46.5641 146.376 45.7284C147.903 42.6723 149.781 39.8583 152.006 37.2863C158.573 34.9422 164.672 31.8932 170.303 28.1404C177.252 24.1923 184.289 20.2063 191.415 16.1808C196.918 14.7161 201.141 16.3567 204.082 21.1053C208.337 25.3629 212.091 30.0525 215.342 35.1754C213.078 38.6085 209.793 40.2505 205.49 40.1C204.786 40.686 204.083 41.2724 203.379 41.8587C202.675 42.4451 201.971 43.0315 201.268 43.6175C204.275 49.1907 208.028 54.1153 212.527 58.3912C212.323 59.4774 211.855 60.4159 211.12 61.2052C204.396 60.8141 199.235 63.3931 195.638 68.9438C196.52 70.234 196.99 71.6411 197.045 73.1649C203.645 77.4337 210.213 81.6549 216.749 85.828C219.369 89.3765 222.184 92.8941 225.194 96.3806C229.312 96.6874 233.301 97.3909 237.158 98.4912C237.86 105.041 238.095 111.606 237.861 118.189C239.383 129.79 243.136 140.576 249.121 150.551C254.082 154.675 259.712 157.724 266.011 159.696C276.575 160.232 286.896 161.874 296.975 164.621C300.904 164.793 303.719 166.67 305.42 170.249C306.472 172.827 307.88 175.172 309.642 177.284C312.954 180.605 315.769 184.357 318.087 188.54C322.346 192.332 326.568 196.085 330.754 199.796C335.891 202.571 341.051 205.385 346.236 208.238C359.166 212.232 372.302 215.516 385.645 218.088C384.194 219.141 382.551 220.079 380.719 220.902V220.902C382.551 220.079 384.194 219.142 385.645 218.088C389.738 219.592 393.96 219.827 398.312 218.792C416.058 214.711 433.417 209.552 450.388 203.314C455.934 201.886 461.563 201.183 467.277 201.204C460.883 205.467 455.019 210.626 449.685 216.681V216.681C455.019 210.627 460.884 205.467 467.278 201.204C467.687 201 468.095 200.795 468.503 200.591C469.033 200.326 469.563 200.061 470.093 199.796C473.092 200.942 476.375 201.645 479.945 201.907C463.27 220.41 446.583 238.903 429.883 257.386C446.583 238.903 463.27 220.41 479.945 201.907L479.945 201.907L479.945 201.906C476.376 201.645 473.092 200.941 470.093 199.796C478.113 199.661 486.089 198.957 494.02 197.685C494.86 196.191 495.329 194.55 495.427 192.761C494.08 185.159 492.908 177.654 491.909 170.248C506.345 169.777 520.184 166.025 533.429 158.992C534.59 153.896 535.294 148.737 535.54 143.515C542.747 138.657 549.55 133.264 555.948 127.334C572.907 117.989 590.734 115.879 609.432 121.003C610.23 110.274 615.86 106.522 626.321 109.747C627.552 108.305 629.194 107.367 631.248 106.933C634.455 108.187 637.505 109.594 640.396 111.155C646.527 110.675 652.157 108.799 657.286 105.526C663.754 89.0784 670.792 72.8977 678.398 56.9844C695.75 56.2809 713.109 56.0459 730.474 56.2809L788.18 56.2807H852.923H919.074C923.322 56.0485 927.544 56.2835 931.741 56.9842C932.384 57.5667 932.854 58.2702 933.148 59.0947C928.512 68.8256 924.29 78.6747 920.481 88.642C919.248 88.4583 918.31 88.9268 917.666 90.0496C915.147 94.1131 913.505 98.3341 912.74 102.713C915.713 98.1723 918.293 93.4827 920.481 88.642C925.906 80.4054 931.536 72.1982 937.371 64.0193C945.841 59.4563 953.817 60.1598 961.298 66.1298C967.429 67.0711 971.651 70.3537 973.965 75.9789C971.904 96.1865 968.152 116.12 962.705 135.777C963.113 140.547 964.99 144.533 968.335 147.737C977.234 155.708 987.555 160.164 999.299 161.103C1003.43 159.315 1007.18 156.97 1010.56 154.068C1020.66 144.116 1030.98 134.502 1041.52 125.225C1051.15 117.361 1060.06 118.298 1068.27 128.039C1074.88 130.677 1078.63 135.601 1079.52 142.812C1071.49 160.701 1062.81 178.289 1053.49 195.575C1052.79 198.826 1052.55 202.108 1052.78 205.424C1058.58 215.679 1066.56 223.886 1076.71 230.047C1079.99 230.986 1083.28 230.986 1086.56 230.047L1102.04 222.309C1114.31 214.889 1127.21 208.793 1140.75 204.017C1150.37 206.827 1157.17 212.925 1161.16 222.309C1164.32 226.858 1164.55 231.548 1161.86 236.379C1149.71 250.868 1137.05 264.938 1123.86 278.589C1122.05 282.601 1121.34 286.822 1121.75 291.252C1125.58 301.254 1131.21 310.164 1138.64 317.986C1142.78 319.348 1147.01 319.581 1151.31 318.689C1168.11 314.724 1185 311.207 1201.97 308.137C1209.6 308.262 1214.29 312.014 1216.05 319.393C1221.78 327.107 1222.96 335.55 1219.57 344.719C1203.98 356.147 1187.8 366.7 1171.01 376.377C1166.64 382.156 1165.7 388.487 1168.19 395.372C1169.17 401.626 1170.82 407.722 1173.12 413.663C1175.04 417.213 1177.62 420.027 1180.86 422.105C1189.43 421.698 1197.88 422.168 1206.2 423.512H1234.35C1241.04 424.161 1245.97 427.443 1249.12 433.361C1252.26 442.23 1252.72 451.14 1250.53 460.094L1244.2 466.426L1190.71 483.31L1185.79 488.235C1182.83 501.45 1183.06 514.583 1186.49 527.631C1193.59 530.461 1200.63 533.275 1207.6 536.073C1214.44 537.102 1221.01 538.977 1227.31 541.701C1252.2 545.877 1259.01 559.479 1247.72 582.505C1245.24 586.4 1241.72 588.51 1237.16 588.836C1219.81 589.785 1202.45 590.488 1185.08 590.947C1176.43 593.979 1171.27 600.076 1169.6 609.238C1163.36 622.795 1166.17 633.582 1178.05 641.6L1200.57 655.67C1205.69 658.702 1210.85 661.751 1216.05 664.815C1223.77 672.052 1224.95 680.259 1219.57 689.438C1216.03 703.286 1207.35 708.211 1193.53 704.212C1181.84 701.358 1170.11 698.779 1158.34 696.473C1152.87 693.783 1147.24 693.314 1141.45 695.066C1139.14 696.9 1136.8 698.775 1134.42 700.694C1128.69 708.379 1124.47 716.821 1121.75 726.021C1122.62 730.064 1124.03 733.815 1125.97 737.277C1131.12 742.847 1136.28 748.475 1141.45 754.161C1148.09 760.352 1154.42 766.917 1160.45 773.859C1165.23 782.384 1164.29 790.358 1157.64 797.778C1153.34 804.218 1147.48 807.969 1140.05 809.035C1128.28 805.734 1117.49 800.574 1107.67 793.557C1099.39 790.116 1091.41 786.363 1083.75 782.301C1073.42 785.122 1064.98 790.75 1058.41 799.185C1057.34 801.814 1055.93 804.159 1054.19 806.221V811.849C1054.22 815.263 1054.93 818.546 1056.3 821.698C1059.75 828.125 1062.8 834.691 1065.45 841.396C1070.58 848.826 1075.04 856.8 1078.82 865.315C1079.93 869.725 1079.46 873.946 1077.41 877.978L1066.86 888.531C1059.04 894.265 1051.06 894.735 1042.93 889.938C1039.36 886.603 1036.07 883.086 1033.08 879.385C1025.66 874.313 1019.09 868.217 1013.37 861.094C1009.54 859.387 1006.25 856.808 1003.52 853.356C1001.1 852.869 998.757 852.165 996.484 851.245C993.74 852.472 990.925 853.41 988.04 854.059C984.972 855.592 981.915 857.12 978.87 858.642L971.15 862.501C969.814 865.705 967.938 868.519 965.52 870.943C965.44 872.504 964.971 873.911 964.113 875.164C967.412 894.234 971.164 913.228 975.372 932.149C975.211 935.992 974.038 939.51 971.854 942.701C962.943 949.736 952.857 952.784 941.593 951.847C939.08 950.742 936.968 949.102 935.26 946.922C930.318 938.909 925.392 930.937 920.481 923.003C916 916.857 912.246 910.291 909.222 903.305C905.323 899.48 900.632 897.135 895.147 896.27C890.011 897.437 884.852 898.374 879.665 899.084C870.613 900.619 864.515 905.778 861.368 914.561C860.495 930.023 859.791 945.5 859.257 960.992C860.074 973.708 854.209 980.508 841.663 981.394C827.165 985.884 818.252 980.959 814.922 966.621C811.302 958.579 808.487 950.137 806.477 941.294C804.33 933.688 801.751 926.184 798.736 918.782C796.947 916.836 794.836 915.429 792.402 914.561C782.601 913.079 772.748 912.844 762.845 913.857C759.383 915.909 756.333 918.488 753.697 921.596C747.635 938.328 742.005 955.212 736.807 972.249C731.663 981.493 723.922 984.542 713.584 981.394C698.626 980.746 692.057 973.007 693.88 958.179C693.3 943.174 692.831 928.167 692.472 913.154C690.489 909.676 688.143 906.393 685.435 903.305C678.465 901.061 671.428 898.95 664.323 896.973C655.656 894.621 648.853 897.201 643.915 904.712C640.162 910.809 636.408 916.906 632.655 923.003L627.285 931.726L621.395 941.294C618.815 945.75 615.297 949.268 610.839 951.847C598.524 952.588 587.968 948.602 579.171 939.887C578.482 938.068 578.247 936.191 578.468 934.259C577.703 934.175 577.235 933.706 577.06 932.852C581.535 914.706 585.288 896.415 588.32 877.978H585.505C560.917 910.316 536.521 942.912 512.317 975.766C510.593 976.558 509.185 976.09 508.094 974.359C515.275 954.932 522.313 935.469 529.206 915.968C536.814 894.559 543.851 872.985 550.318 851.245C545.565 851.853 541.343 850.915 537.651 848.431C534.201 846.47 530.448 845.296 526.391 844.913C525.326 842.786 523.919 840.909 522.169 839.285C512.983 838.253 503.834 838.488 494.724 839.989C489.423 839.686 484.966 837.809 481.353 834.361C476.897 831.077 473.143 827.091 470.093 822.401C465.471 820.818 460.78 819.411 456.018 818.18C452.163 816.737 448.88 814.626 446.166 811.849C440.398 808.684 434.768 805.167 429.276 801.296C427.459 799.478 427.459 797.838 429.276 796.372C427.96 793.05 426.084 790.001 423.647 787.226C417.486 782.97 410.917 779.921 403.942 778.08C400.616 774.764 396.863 771.95 392.682 769.638C383.742 770.613 374.829 769.91 365.941 767.528C361.956 765.183 358.672 762.136 356.088 758.382C353.279 751.878 350.464 745.312 347.644 738.684C343.477 728.643 339.725 718.324 336.384 707.729C333.993 707.954 331.646 707.721 329.347 707.026C325.147 702.139 321.863 696.746 319.494 690.845C318.052 689.615 317.113 687.973 316.679 685.921C321.556 676.471 320.149 668.264 312.457 661.298C303.7 655.509 298.07 647.536 295.567 637.379C286.631 634.147 277.248 632.74 267.418 633.157C252.895 632.198 238.35 631.729 223.787 631.75C219.98 630.865 216.226 630.395 212.527 630.344C208.461 631.046 207.522 633.156 209.712 636.675C208.973 637.649 208.035 638.352 206.897 638.786C202.949 636.305 198.962 633.96 194.934 631.751C193.505 626.207 192.802 620.579 192.823 614.866C185.788 611.083 179.688 606.393 174.526 600.796C173.211 599.006 172.272 596.895 171.71 594.464C173.559 587.602 173.559 580.802 171.71 574.062C169.834 573.124 168.427 571.717 167.488 569.841C163.957 568.979 160.438 568.04 156.932 567.027C156.694 560.469 156.928 553.903 157.636 547.329C158.471 540.921 160.348 534.823 163.266 529.039C166.395 523.032 166.628 516.936 163.97 510.747C161.624 507.933 159.278 505.119 156.932 502.305C154.586 499.491 152.24 496.677 149.895 493.863C149.877 488.438 148.234 483.747 144.969 479.793C141.405 478.25 138.121 476.375 135.117 474.165C130.399 474.122 126.646 472.247 123.857 468.537C118.227 463.847 113.066 458.687 108.375 453.059C105.796 452.007 103.45 450.6 101.337 448.838C98.7083 447.765 96.3621 446.358 94.3001 444.617C89.7216 443.653 85.2655 442.246 80.9292 440.396L80.0371 438.613L78.4661 435.472C77.6452 433.83 76.8243 432.188 76.003 430.547C77.1952 428.655 78.8363 427.248 80.9292 426.326C81.8299 423.843 81.5949 421.497 80.2254 419.291C77.5372 417.216 75.8961 414.402 75.2993 410.849C74.3549 409.791 73.1825 409.321 71.7806 409.442C70.9122 409.286 70.2085 408.817 69.6695 408.035C68.9728 405.259 68.7377 402.445 68.9657 399.593C64.5294 400.354 61.0107 398.947 58.4097 395.372C55.4794 387.16 51.4906 379.655 46.4462 372.859C43.6412 367.155 45.5187 363.638 52.0761 362.307C52.8938 361.05 53.3639 359.643 53.4836 358.086C52.0789 353.157 49.7327 348.701 46.4462 344.719C49.6637 341.746 52.0085 338.228 53.4836 334.166C56.1929 334.356 59.0079 334.591 61.9283 334.87C59.1036 325.034 62.1535 317.528 71.0769 312.358L72.0785 309.354L72.4951 308.104L73.435 305.285L73.8918 303.916C76.8925 302.115 79.9411 302.115 83.0403 303.916C84.4168 303.244 85.5892 302.307 86.559 301.102C87.844 293.816 86.2015 287.251 81.6329 281.403C82.4323 276.572 82.666 271.881 82.3366 267.333C86.6364 265.344 91.0939 263.702 95.7075 262.409C97.046 261.398 97.2797 260.226 96.4113 258.891C92.7139 256.899 88.7265 255.96 84.4478 256.077C75.502 259.72 68.9334 257.376 64.7433 249.042H64.743C64.1054 247.694 63.1681 246.521 61.9281 245.524C60.0529 245.29 58.178 245.056 56.3031 244.821C54.425 244.587 52.5469 244.352 50.6684 244.117C49.3524 240.767 48.8837 237.25 49.2609 233.565C49.4077 233.744 49.5533 233.903 49.6977 234.041C49.5535 233.903 49.4082 233.744 49.2615 233.565C48.4142 228.826 47.2404 224.136 45.7429 219.495C37.0729 216.692 34.0234 211.064 36.5941 202.61C37.8782 200.869 38.1128 198.992 37.2978 196.982C33.1938 195.536 30.1443 192.956 28.1493 189.244C29.2388 186.213 30.1771 183.164 30.9642 180.098C30.0294 177.303 28.3874 174.957 26.0381 173.063C24.9243 168.488 25.6281 164.267 28.1493 160.4C27.795 158.187 26.8568 156.311 25.3343 154.772V154.772C22.3453 154.025 20.2341 152.148 19.0008 149.144C17.9218 143.434 18.1564 137.806 19.7045 132.26C17.3101 130.381 14.9643 128.506 12.6672 126.632C7.27673 124.677 3.52344 121.16 1.40746 116.079C5.40057 110.639 8.91923 104.776 11.9634 98.4912C12.8952 95.2368 13.5989 91.9542 14.0747 88.642C11.7609 88.9431 9.64974 88.4732 7.74109 87.235C6.77161 79.2291 7.00611 71.2556 8.44482 63.3157C7.365 58.3377 5.4883 53.6467 2.81497 49.2456C4.78006 47.3433 5.71842 44.9978 5.62989 42.2105C4.36035 38.3412 2.71826 34.5887 0.703769 30.9544C-0.23459 28.6089 -0.23459 26.2648 0.703769 23.9193C5.97527 22.7979 11.3705 22.0944 16.8896 21.8088C18.8816 16.5606 20.5237 11.1675 21.8157 5.62807C23.8411 2.8872 26.4214 1.01164 29.5568 0C38.9948 4.52214 44.39 12.0272 45.7426 22.5123ZM744.548 854.059C759.166 854.583 773.71 854.583 788.18 854.059C809.486 853.429 830.598 851.083 851.516 847.024C872.315 841.345 892.958 834.779 913.444 827.326C927.711 819.489 942.256 811.985 957.076 804.814C1014 768.081 1058.1 719.773 1089.38 659.891C1096.79 643.211 1103.36 626.326 1109.08 609.238C1114.38 589.768 1118.61 570.07 1121.75 550.144C1122.65 540.79 1123.12 531.41 1123.16 522.003C1124.91 509.879 1124.91 497.686 1123.16 485.421C1122.33 470.824 1120.92 456.284 1118.93 441.803C1117.12 436.438 1115.71 430.81 1114.71 424.919C1109.55 404.755 1102.98 385.057 1095.01 365.824L1090.36 356.541L1085.93 347.677L1080.93 337.684C1077.67 332.105 1074.38 326.477 1071.08 320.8C1063.58 310.021 1056.08 299.233 1048.56 288.438C1036.82 276.185 1025.09 263.991 1013.37 251.856C1002.06 242.461 990.798 233.081 979.595 223.716C974.398 221.121 969.707 217.839 965.52 213.867C953.553 207.652 941.824 201.087 930.334 194.168C915.226 188.014 900.212 181.917 885.295 175.877C876.584 172.065 872.362 174.879 872.628 184.319C874.445 183.986 875.852 184.454 876.85 185.726C886.834 188.606 896.687 191.889 906.407 195.575C908.752 196.748 911.098 197.92 913.444 199.093L916.424 200.582C917.776 201.258 919.129 201.934 920.481 202.61C926.249 204.788 931.879 207.368 937.371 210.349C944.042 213.67 950.142 217.656 955.668 222.309C961.212 225.047 966.373 228.329 971.15 232.158C984.151 240.461 995.879 250.31 1006.34 261.705C1019.11 272.595 1030.37 284.789 1040.12 298.288C1048.64 308.286 1056.15 319.072 1062.64 330.649C1065.82 335.621 1068.64 340.779 1071.08 346.126C1077.7 355.605 1082.86 365.923 1086.56 377.08C1088.52 380.608 1089.93 384.359 1090.78 388.337C1097.23 404.72 1102.39 421.604 1106.27 438.989C1106.76 444.277 1107.7 449.435 1109.08 454.466C1111.15 470.338 1112.09 486.283 1111.9 502.305C1112.36 515.224 1111.89 527.887 1110.49 540.294C1110.13 550.809 1108.72 561.127 1106.27 571.249C1101.58 596.085 1094.08 620.005 1083.75 643.007C1053.65 710.149 1006.73 762.209 943.001 799.185C920.743 811.766 897.285 821.615 872.628 828.733C862.642 832.4 852.321 834.745 841.663 835.768C829.368 838.891 816.701 840.767 803.662 841.396C788.686 842.627 773.674 843.097 758.623 842.803C753.134 841.494 747.504 841.026 741.733 841.396C723.448 839.242 705.619 835.489 688.25 830.14C684.251 830.055 680.499 829.118 676.99 827.326C666.065 824.94 655.744 821.187 646.026 816.07C641.857 815.28 637.87 813.873 634.062 811.849C631.433 814.007 629.322 816.586 627.729 819.587C630.813 822.089 634.096 824.199 637.581 825.919C647.183 829.424 656.566 833.176 665.73 837.175C685.532 843.414 705.705 848.103 726.251 851.245C732.599 851.785 738.698 852.724 744.548 854.059ZM570.023 858.984C578.701 836.005 586.677 812.789 593.95 789.337C608.932 747.693 623.946 705.952 638.989 664.112C650.526 631.386 661.785 598.556 672.768 565.621C678.451 550.926 683.611 535.919 688.25 520.596C691.204 513.862 693.784 506.827 695.991 499.491C697.004 497.223 696.771 495.112 695.287 493.16C678.405 492.456 661.515 492.221 644.618 492.456H579.875H523.577C528.187 479.095 533.349 465.962 539.059 453.059C549.656 426.906 559.978 400.642 570.023 374.266C579.929 351.618 589.311 328.637 598.172 305.323C606.67 285.956 614.645 266.258 622.099 246.228C633.307 219.115 644.566 191.913 655.878 164.621C660.847 152.537 665.538 140.343 669.953 128.039C676.857 111.821 683.66 95.4058 690.361 78.7931C691.417 77.9123 692.591 77.2088 693.88 76.6826C701.372 75.9805 708.878 75.7455 716.399 75.9791L774.105 75.9789H838.848C859.541 75.5793 880.184 76.0492 900.777 77.3859C899.569 83.0815 897.223 88.241 893.74 92.8631C876.832 126.669 859.942 160.438 843.071 194.168C832.504 213.419 822.651 233.117 813.514 253.263C796.288 286.296 779.399 319.594 762.845 353.161L760.988 356.876L760.743 357.365C759.574 359.701 758.399 362.052 757.216 364.417C757.926 366.414 759.334 367.351 761.438 367.231H827.589H834.626H916.259H931.741C931.951 368.712 931.717 370.119 931.037 371.452C878.964 440.876 827.592 510.757 776.92 581.098C708.82 672.402 641.495 764.327 574.949 856.873C573.771 858.994 572.128 859.697 570.023 858.984ZM110.096 169.484C90.9539 190.807 71.8486 212.167 52.7796 233.565C52.5781 233.852 52.3737 234.086 52.1661 234.266C52.3738 234.086 52.5787 233.852 52.7802 233.565C71.8491 212.167 90.954 190.807 110.096 169.484ZM795.544 856.525L794.065 856.736L793.912 856.758L793.753 856.781L792.965 856.893L792.436 856.969C794.301 856.702 796.166 856.436 798.031 856.17L795.544 856.525ZM731.881 59.7982L734.482 59.365L735.905 59.1281C734.564 59.3516 733.223 59.5752 731.881 59.7984L719.214 72.4616L731.881 59.7982ZM719.214 72.4616C720.515 72.7214 721.816 72.9816 723.117 73.2419L722.528 73.1242C721.732 72.9649 720.936 72.8057 720.14 72.6466L719.214 72.4616ZM726.249 73.8681C725.243 73.6671 724.237 73.466 723.231 73.2647L724.42 73.5024L726.249 73.8681ZM740.326 58.3914C739.001 58.6119 737.677 58.8327 736.352 59.0535L736.104 59.0947C737.111 58.9268 738.118 58.7589 739.125 58.5912L740.326 58.3914Z" fill="black"/>
</svg>
