<svg width="1026" height="814" viewBox="0 0 1026 814" fill="none" xmlns="http://www.w3.org/2000/svg">
<path opacity="0.994" fill-rule="evenodd" clip-rule="evenodd" d="M19 0.0626406C348 -0.104359 677 0.0626406 1006 0.562641C1020.92 5.21264 1027.09 15.3786 1024.5 31.0626C1021.59 40.9686 1015.09 47.1356 1005 49.5626C942.096 49.7316 879.263 50.2316 816.5 51.0626C816.167 117.396 815.833 183.73 815.5 250.063C812.199 261.366 804.699 267.533 793 268.563C604.299 269.557 415.632 269.224 227 267.563C218.43 264.659 212.93 258.826 210.5 250.063C210.167 183.73 209.833 117.396 209.5 51.0626C171.739 50.0666 133.906 49.7326 96 50.0626C95.833 119.73 96 189.397 96.5 259.063C113.837 274.078 118.504 292.411 110.5 314.063C100.184 333.472 84.017 341.638 62 338.563C40.0795 332.637 28.4128 318.304 27 295.563C27.4601 280.476 33.6268 268.309 45.5 259.063C46.1667 189.73 46.1667 120.396 45.5 51.0626C36.0188 50.4646 26.5188 49.6306 17 48.5626C6.3428 44.4396 0.6761 36.6056 0 25.0626C0.8126 12.4016 7.1459 4.06864 19 0.0626406Z" fill="black"/>
<path opacity="0.98" fill-rule="evenodd" clip-rule="evenodd" d="M330 297.063C536.667 296.896 743.334 297.063 950 297.563C966.55 301.474 973.72 311.974 971.5 329.063C968.567 338.997 962.067 345.163 952 347.563C946.343 348.062 940.676 348.229 935 348.063C935 388.73 935 429.396 935 470.063C943.643 469.288 951.976 470.455 960 473.563C970.843 482.097 974.01 492.93 969.5 506.063C964.945 514.758 957.778 519.591 948 520.563C742.667 521.23 537.333 521.23 332 520.563C297.973 517.648 274.473 500.481 261.5 469.063C259.535 463.202 258.202 457.202 257.5 451.063C256.833 422.73 256.833 394.396 257.5 366.063C265.122 325.529 289.289 302.529 330 297.063ZM329 348.063C514.333 348.063 699.667 348.063 885 348.063C885 388.73 885 429.396 885 470.063C700.333 470.23 515.666 470.063 331 469.563C318.272 467.169 310.439 459.669 307.5 447.063C306.833 421.73 306.833 396.396 307.5 371.063C310.409 359.323 317.576 351.657 329 348.063Z" fill="black"/>
<path opacity="0.987" fill-rule="evenodd" clip-rule="evenodd" d="M118 552.063C361.667 551.896 605.334 552.063 849 552.563C863.509 558.069 869.342 568.569 866.5 584.063C864 593.23 858.167 599.063 849 601.563C842.086 601.749 835.253 602.249 828.5 603.063C828 656.395 827.833 709.729 828 763.063C836.071 762.7 844.071 763.2 852 764.563C861.786 769.031 866.786 776.698 867 787.563C866.386 801.842 859.052 810.176 845 812.563C604.333 813.23 363.667 813.23 123 812.563C80.008 806.905 54.5077 782.738 46.5 740.063C45.8333 701.396 45.8333 662.73 46.5 624.063C54.5132 584.217 78.347 560.217 118 552.063ZM687 565.063C691.493 566.743 693.993 570.077 694.5 575.063C695.468 582.877 694.801 590.543 692.5 598.063C680.372 634.359 660.706 665.693 633.5 692.063C629.901 704.357 629.567 716.69 632.5 729.063C634.164 732.647 636.997 734.314 641 734.063C644.95 733.802 648.617 732.635 652 730.563C662.985 721.567 669.819 710.067 672.5 696.063C681.359 675.204 696.192 660.371 717 651.563C721.595 650.17 726.261 649.837 731 650.563C737.583 652.831 740.583 657.498 740 664.563C738.677 675.538 733.677 684.538 725 691.563C712.297 701.243 697.963 707.076 682 709.063C680.538 716.632 681.371 723.965 684.5 731.063C690.653 737.48 698.153 739.647 707 737.563C722.505 733.069 735.005 724.236 744.5 711.063C747.5 706.396 750.5 701.73 753.5 697.063C747.135 716.776 734.302 730.943 715 739.563C704.526 744.203 693.859 744.87 683 741.563C673.202 736.906 667.869 729.073 667 718.063C662.214 724.683 656.547 730.517 650 735.563C641.627 740.617 632.96 741.284 624 737.563C621.8 735.329 619.967 732.829 618.5 730.063C617.011 723.484 616.011 716.817 615.5 710.063C606.617 719.235 596.783 720.401 586 713.563C583.108 709.93 580.108 706.43 577 703.063C571.411 715.07 563.745 725.57 554 734.563C544.317 742.03 534.317 742.697 524 736.563C520.195 732.116 518.195 726.949 518 721.063C521.7 696.485 533.034 676.318 552 660.563C559.868 654.051 568.868 651.385 579 652.563C583.185 655.065 587.352 657.565 591.5 660.063C592.922 662.593 593.255 665.26 592.5 668.063C588.077 676.403 585.244 685.236 584 694.563C584.965 711.19 593.299 717.19 609 712.563C612.592 709.642 615.425 706.142 617.5 702.063C629.313 656.446 648.647 614.446 675.5 576.063C679.229 572.165 683.062 568.498 687 565.063ZM343 613.063C352.236 611.788 355.403 615.455 352.5 624.063C347.665 630.412 341.498 632.579 334 630.563C329.011 625.416 329.678 620.749 336 616.563C338.425 615.35 340.759 614.184 343 613.063ZM178 642.063C179.644 641.849 181.144 642.183 182.5 643.063C182.906 646.903 182.739 650.736 182 654.563C182.337 658.086 182.837 661.586 183.5 665.063C187.241 676.952 190.574 688.952 193.5 701.063C194.226 708.432 194.059 715.765 193 723.063C204.877 721.036 213.71 714.702 219.5 704.063C225.076 682.835 237.576 667.335 257 657.563C263.24 654.868 269.573 654.535 276 656.563C281.688 660.097 284.688 665.264 285 672.063C284.48 675.475 283.647 678.808 282.5 682.063C279.316 688.115 274.816 689.449 269 686.063C274.513 679.354 276.68 671.688 275.5 663.063C269.841 660.245 264.341 660.745 259 664.563C239.863 680.96 231.03 701.793 232.5 727.063C235.11 735.333 240.776 739.333 249.5 739.063C268.523 736.382 282.856 726.716 292.5 710.063C297.086 700.639 301.086 690.972 304.5 681.063C308.744 670.697 315.244 662.197 324 655.563C330.002 654.57 332.168 657.07 330.5 663.063C321.585 676.893 314.252 691.56 308.5 707.063C306.184 714.549 306.517 721.883 309.5 729.063C312.153 731.504 315.32 732.504 319 732.063C327.333 731.813 334.166 728.48 339.5 722.063C341.833 719.063 344.167 716.063 346.5 713.063C353.429 688.817 367.262 669.651 388 655.563C395.1 651.204 402.766 649.538 411 650.563C417.841 652.394 421.174 656.894 421 664.063C419.359 675.891 413.692 685.391 404 692.563C391.748 701.483 378.081 706.983 363 709.063C360.968 717.572 362.135 725.572 366.5 733.063C372.577 737.702 379.41 739.202 387 737.563C395.099 735.846 402.432 732.513 409 727.563C419.143 719.436 426.977 709.603 432.5 698.063C435.02 681.756 437.353 665.423 439.5 649.063C447.546 645.7 452.379 648.533 454 657.563C452.334 666.558 450.667 675.558 449 684.563C449.333 685.396 449.667 686.23 450 687.063C456.76 674.803 466.093 664.969 478 657.563C499.359 651.747 510.693 659.913 512 682.063C509.312 706.236 497.312 724.069 476 735.563C465.739 739.685 455.406 740.018 445 736.563C469.449 734.462 486.283 721.962 495.5 699.063C499.142 688.864 498.808 678.864 494.5 669.063C493.286 667.514 491.786 666.348 490 665.563C481.284 663.693 473.617 665.693 467 671.563C457.999 680.067 450.832 689.9 445.5 701.063C438.565 731.137 430.232 760.803 420.5 790.063C416.357 801.894 411.857 802.061 407 790.563C416.785 765.372 424.452 739.539 430 713.063C429.667 712.396 429.333 711.73 429 711.063C422.174 720.055 414.174 727.889 405 734.563C393.371 742.305 380.704 744.971 367 742.563C355.257 738.595 348.591 730.429 347 718.063C341.034 725.862 333.701 732.029 325 736.563C304.374 744.089 293.708 736.922 293 715.063C286.174 724.055 278.174 731.889 269 738.563C260.421 744.04 251.087 746.706 241 746.563C229.838 745.069 222.671 738.902 219.5 728.063C218.911 723.018 218.078 718.018 217 713.063C209.848 719.641 201.515 724.141 192 726.563C182.282 743.91 167.948 749.244 149 742.563C136.827 734.747 131.993 723.58 134.5 709.063C135.225 706.614 136.225 704.28 137.5 702.063C141.991 698.484 146.657 695.151 151.5 692.063C159.38 682.516 166.046 672.182 171.5 661.063C171.076 653.718 173.243 647.385 178 642.063Z" fill="black"/>
<path opacity="0.917" fill-rule="evenodd" clip-rule="evenodd" d="M686 583.062C686.996 582.976 687.829 583.31 688.5 584.062C688.902 585.434 689.402 586.767 690 588.062C679.72 624.133 662.054 655.966 637 683.562C636.333 684.229 635.667 684.229 635 683.562C644.919 651.891 658.753 622.058 676.5 594.062C679.222 589.91 682.388 586.243 686 583.062Z" fill="black"/>
<path opacity="0.936" fill-rule="evenodd" clip-rule="evenodd" d="M403 656.063C406.513 655.439 409.347 656.439 411.5 659.063C411.757 669.057 408.257 677.557 401 684.563C391.132 693.001 380.132 699.668 368 704.563C366.667 705.23 365.333 705.23 364 704.563C369.31 687.611 378.643 673.277 392 661.563C395.49 659.151 399.157 657.318 403 656.063Z" fill="black"/>
<path opacity="0.932" fill-rule="evenodd" clip-rule="evenodd" d="M722 656.062C728.319 654.395 731.319 656.728 731 663.062C730.431 669.867 727.931 675.867 723.5 681.062C712.282 692.255 699.115 700.255 684 705.062C688.292 688.259 696.959 674.092 710 662.562C713.934 660.098 717.934 657.931 722 656.062Z" fill="black"/>
<path opacity="0.957" fill-rule="evenodd" clip-rule="evenodd" d="M572 660.062C574 660.062 576 660.062 578 660.062C576.527 664.62 575.361 669.286 574.5 674.062C574.235 682.075 574.235 690.075 574.5 698.062C569.072 711.797 560.239 722.629 548 730.562C540.242 734.148 535.075 731.981 532.5 724.062C531.715 714.321 533.381 704.986 537.5 696.062C542.933 683.325 551.1 672.825 562 664.562C565.315 662.732 568.649 661.232 572 660.062Z" fill="black"/>
<path opacity="0.934" fill-rule="evenodd" clip-rule="evenodd" d="M171 669.062C171.996 668.976 172.829 669.31 173.5 670.062C175.628 679.701 177.628 689.368 179.5 699.062C180.167 706.729 180.167 714.395 179.5 722.062C178.939 722.584 178.272 722.917 177.5 723.062C164.821 719.205 155.321 711.539 149 700.062C157.581 690.549 164.914 680.215 171 669.062Z" fill="black"/>
<path opacity="0.916" fill-rule="evenodd" clip-rule="evenodd" d="M147 706.062C152.441 710.328 157.774 714.828 163 719.562C167.671 722.149 172.505 724.316 177.5 726.062C174.869 736.642 168.036 740.477 157 737.562C146.581 731.893 142.081 723.061 143.5 711.062C144.197 708.978 145.364 707.311 147 706.062Z" fill="black"/>
</svg>
