<svg width="3053" height="414" viewBox="0 0 3053 414" fill="none" xmlns="http://www.w3.org/2000/svg">
<path d="M555.172 342.094C590.546 339.218 625.829 336.701 661.112 334.184C655.262 354.228 643.561 370.946 625.83 384.249C599.457 404.113 563.903 414 519.259 414C488.206 414 459.944 408.337 434.472 397.012C411.879 387.035 394.146 373.643 381.095 357.014C419.799 353.509 458.413 350.093 497.027 346.858C503.778 347.936 511.248 348.476 519.259 348.476C533.48 348.476 545.451 346.318 555.172 342.184V342.094ZM721.598 330.05V408.427H804.676V324.926C790.634 325.735 776.684 326.544 762.732 327.443C748.961 328.342 735.279 329.151 721.508 330.139L721.598 330.05ZM1039.69 312.972L1004.05 408.427H1092.43L1120.07 325.465H1265.79L1293.78 408.427H1382.08L1343.11 304.433C1241.85 306.051 1140.77 308.837 1039.69 312.972ZM1649.95 327.353C1636.63 340.566 1614.39 347.217 1583.25 347.217C1552.11 347.217 1528.62 336.431 1512.59 314.769C1509.8 311.174 1507.37 307.129 1505.12 302.905C1475.78 302.905 1446.44 303.175 1417.09 303.444C1419.7 310.815 1422.67 317.915 1426.01 324.746C1440.32 353.689 1460.66 375.8 1486.94 390.99C1513.22 406.18 1543.83 413.82 1578.75 413.82C1613.67 413.82 1642.3 408.877 1669.57 398.99C1696.93 389.192 1718.08 375.26 1733.03 357.374V304.703C1705.39 304.253 1677.67 303.804 1649.95 303.534V327.173V327.353ZM1800.35 408.337H1883.43V308.388C1855.71 307.489 1828.07 306.77 1800.35 306.141V408.337ZM1975.6 311.534L2025.19 408.337H2114.39V404.472L2067.14 315.309C2036.62 313.871 2006.11 312.612 1975.6 311.444V311.534ZM2245.35 324.746C2217.72 323.129 2190 321.511 2162.37 320.073V408.337H2432.66V341.644H2245.44V324.746H2245.35ZM2447.24 408.337H2535.63L2556.15 346.858C2528.34 344.61 2500.53 342.273 2472.72 340.206L2447.24 408.427V408.337ZM2721.23 361.508L2736.98 408.337H2825.28L2810.97 370.137C2781 367.171 2751.2 364.295 2721.23 361.598V361.508ZM1488.74 232.796C1460.57 232.796 1432.4 233.156 1404.31 233.695C1375.33 234.145 1346.35 234.774 1317.36 235.673C1290.45 236.392 1263.54 237.29 1236.72 238.279C1207.1 239.448 1177.49 240.796 1147.88 242.324C1119.98 243.762 1092.07 245.29 1064.26 247.088C1026.28 249.425 988.295 252.031 950.311 254.997C906.117 258.413 861.921 262.278 817.817 266.502C813.406 266.862 809.086 267.311 804.676 267.761C788.384 269.379 772.183 270.907 755.802 272.614C744.371 273.783 732.939 275.041 721.508 276.3C702.246 278.457 683.075 280.614 663.813 282.951C636.271 286.187 608.639 289.602 581.186 293.198C535.642 299.04 490.186 305.332 444.912 312.163C417.549 316.297 390.366 320.432 363.183 324.926C241.042 344.79 119.801 368.07 0 395.215C118.361 362.138 238.071 333.735 358.773 309.556C356.883 300.748 355.894 291.49 355.894 281.782H439.242C439.242 286.007 439.511 290.052 440.141 293.917C483.435 285.827 526.909 278.367 570.383 271.356C568.943 269.738 567.234 268.12 565.344 266.682C554.273 258.233 534.29 249.425 505.487 240.077C476.775 230.819 453.914 221.651 437.082 212.663C391.358 187.945 368.404 154.688 368.404 112.803C368.404 91.0513 374.525 71.5467 386.857 54.4689C399.188 37.4811 416.828 24.0886 439.691 14.4711C462.733 4.94356 488.566 0.179735 517.099 0.179735C545.631 0.179735 571.554 5.39297 594.057 15.7295C616.559 26.1559 634.109 40.8967 646.62 59.862C659.041 78.8272 665.253 100.489 665.253 124.578H582.175C582.175 106.062 576.325 91.7702 564.804 81.5236C553.103 71.277 536.812 66.1537 515.75 66.1537C494.688 66.1537 479.656 70.3781 468.405 79.0069C457.154 87.5458 451.572 98.871 451.572 112.893C451.572 125.926 458.232 136.981 471.374 145.79C484.605 154.688 503.957 162.958 529.699 170.687C576.954 184.889 611.429 202.506 632.941 223.449C643.382 233.695 651.572 245.2 656.792 257.784C678.394 254.638 699.996 251.582 721.508 248.616V5.48285H878.843C909.176 5.48285 935.819 10.9657 958.771 22.1112C981.724 33.1667 999.454 48.8962 1011.79 69.2097C1024.12 89.6131 1030.33 112.803 1030.33 138.869C1030.33 170.508 1021.69 196.753 1004.23 217.606C1028.53 215.449 1052.92 213.472 1077.22 211.674L1154.09 5.48285H1231.05L1303.68 199.18C1337.08 197.922 1370.47 196.933 1403.86 196.304V195.225C1403.86 155.048 1410.61 120.173 1424.21 90.8715C1437.8 61.4798 1457.33 38.9192 1482.98 23.3695C1508.54 7.81979 1538.52 0 1572.9 0C1620.6 0 1658.05 11.3252 1684.96 34.1554C1711.96 56.8957 1727.89 90.0625 1732.94 133.566H1652.02C1648.33 110.556 1640.14 93.568 1627.54 82.8719C1614.84 72.1759 1597.47 66.7828 1575.33 66.7828C1547.16 66.7828 1525.64 77.3891 1510.79 98.6014C1495.94 119.724 1488.56 151.273 1488.38 193.158V218.864C1488.38 223.628 1488.38 228.122 1488.65 232.527L1488.74 232.796ZM2801.07 343.802C2770.73 338.319 2740.31 333.016 2709.8 327.982C2704.4 326.994 2699 326.185 2693.69 325.286C2625.82 314.23 2557.68 304.163 2489.37 295.175C2425.46 286.726 2361.37 279.086 2297.11 272.345C2279.83 270.547 2262.54 268.839 2245.26 267.132C2217.63 264.435 2189.91 261.918 2162.28 259.581C2118.98 255.896 2075.6 252.571 2032.3 249.694C1955.08 244.391 1877.76 240.436 1800.26 237.56C1777.85 236.751 1755.44 235.942 1733.03 235.403C1680.19 233.875 1627.26 233.066 1574.25 232.706V196.574H1733.03V198.551C1755.44 199.27 1777.94 200.169 1800.26 201.248V5.48285H1950.12C1997.74 5.48285 2034.46 16.089 2060.3 37.3014C2086.13 58.5137 2099.09 88.5345 2099.09 127.184C2099.09 154.598 2093.15 177.518 2081.18 195.854C2075.78 204.214 2069.12 211.764 2061.2 218.505C2094.95 221.471 2128.61 224.707 2162.28 228.302V5.48285H2432.03V72.6253H2245.35V168.62H2404.85V233.605H2245.35V237.65C2262.72 239.717 2279.92 241.785 2297.2 244.032C2364.16 252.75 2430.95 262.548 2497.56 273.423L2597.47 5.48285H2674.42L2796.39 330.769C2882.52 349.824 2968.03 371.126 3053 394.945C2969.65 375.98 2885.76 358.902 2801.25 343.622L2801.07 343.802Z" fill="black"/>
</svg>
