<svg width="1320" height="1175" viewBox="0 0 1320 1175" fill="none" xmlns="http://www.w3.org/2000/svg">
<path d="M659.408 995.528C609.835 995.528 569.663 1035.72 569.663 1085.27C569.663 1134.83 609.853 1175 659.408 1175C708.963 1175 749.135 1134.81 749.135 1085.27C749.135 1035.74 708.945 995.528 659.408 995.528Z" fill="black"/>
<path fill-rule="evenodd" clip-rule="evenodd" d="M1319.59 559.477C1319.65 560.177 1319.69 560.878 1319.7 561.578H1319.69C1319.89 565.007 1319.93 568.381 1319.89 571.7V573.193V573.598C1319.85 574.87 1319.82 576.124 1319.74 577.378C1319.69 578.613 1319.61 579.848 1319.54 581.083C1319.53 581.284 1319.51 581.485 1319.5 581.683C1319.49 581.867 1319.47 582.049 1319.46 582.226L1319.41 582.89C1319.02 587.739 1318.43 592.348 1317.73 596.735C1317.58 597.639 1317.44 598.523 1317.27 599.408C1317.07 600.607 1316.83 601.805 1316.59 602.985C1316.59 603.04 1316.59 603.077 1316.57 603.114C1311.94 626.325 1304.14 641.221 1304.14 641.221C1304.14 641.221 1255.23 755.393 1127.48 785.148C1125.89 785.517 1124.3 785.867 1122.72 786.217C1122.7 786.232 1122.67 786.241 1122.65 786.246C1122.61 786.254 1122.56 786.254 1122.52 786.254C1099.21 791.767 1075.47 793.96 1051.48 793.758H1051C983.032 793.758 927.3 774.511 902.412 764.242C902.394 764.233 902.38 764.228 902.366 764.224C902.352 764.219 902.338 764.214 902.32 764.205C899.813 763.247 897.324 762.251 894.835 761.237C893.317 760.613 891.823 759.939 890.196 759.206C889.374 758.836 888.518 758.45 887.608 758.048C887.286 758.494 886.966 758.932 886.65 759.366C885.792 760.543 884.961 761.682 884.179 762.841C858.204 801.281 821.911 863.277 792.258 913.93C772.287 948.043 755.329 977.012 746.563 990.174C723.668 969.445 693.308 956.813 660.012 956.813C623.477 956.813 590.493 971.992 567.015 996.384C563.099 991.314 550.999 968.378 534.892 937.846C506.727 884.46 466.311 807.85 435.97 762.915C435.542 762.284 435.097 761.62 434.639 760.936C434.012 760.001 433.36 759.027 432.689 758.048C432.325 758.165 431.976 758.272 431.639 758.376C430.817 758.628 430.066 758.858 429.333 759.172C429.031 759.295 428.733 759.423 428.434 759.551C428.152 759.672 427.869 759.793 427.582 759.91C427.574 759.917 427.564 759.925 427.551 759.931C427.533 759.94 427.512 759.947 427.49 759.947C406.492 769.662 305.962 811.677 192.453 785.222C64.6751 755.448 15.7836 641.276 15.7836 641.276C15.7836 641.276 8.66738 627.707 4.00315 606.267C3.98471 606.248 3.98471 606.23 3.98471 606.211C-3.90577 569.985 -4.82756 511.378 47.2164 457.914C54.5907 450.337 62.2047 443.756 69.9661 438.096C70.0213 438.041 70.0765 438.004 70.1317 437.967L70.132 437.967C82.4102 429.468 95.8499 422.481 110.359 416.858C126.988 410.442 144.336 406.976 161.923 405.87H161.997C171.436 405.262 180.949 405.354 190.462 406.018C208.99 407.327 226.319 410.664 244.036 416.305C276.243 426.574 306.109 441.709 334.426 459.998C378.469 488.444 428.909 536.616 464.509 575C466.74 577.396 485.525 598.505 485.544 598.542C482.115 600.201 366.56 654.9 366.56 654.9C366.325 654.459 366.099 654.049 365.884 653.657C365.424 652.82 365.013 652.071 364.661 651.305C348.88 616.793 316.876 571.865 289.388 545.521C287.176 543.401 284.927 541.336 282.659 539.345C282.585 539.29 282.493 539.216 282.419 539.142C252.092 513.83 211.239 493.864 157.886 494.011C131.615 495.615 106.708 506.437 94.0432 529.666C92.9923 531.565 92.0337 533.556 91.1672 535.621C81.7097 558.205 83.3689 584.697 89.8951 607.815C92.0152 615.3 94.8728 622.14 98.3755 628.408C108.11 645.756 122.748 658.642 139.967 668.321C148.502 672.912 157.48 676.691 166.717 679.972C193.08 689.319 220.291 694.315 248.184 696.177C287.526 698.814 326.149 695.108 364.053 684.084C383.484 678.442 402.602 671.529 420.835 662.901C444.377 651.729 467.422 638.806 489.047 624.241C493.675 621.121 498.32 618.049 502.961 614.981C518.914 604.431 534.805 593.923 549.7 581.655C559.305 573.746 568.597 565.431 577.52 556.748C579.455 554.868 597.522 533.925 597.522 533.925C593.467 528.726 589.466 523.472 585.484 518.199L584.304 516.642C568.524 495.817 551.985 473.99 539.395 450.356C523.245 420.029 515.115 392.523 508.681 355.025C503.371 324.09 501.141 291.44 502.247 258.845C502.376 255.029 502.394 251.213 502.394 247.397C502.394 247.397 503.095 239.175 503.408 233.496C507.021 168.216 531.301 115.121 531.301 115.121C539.579 95.3208 551.009 68.6812 576.229 42.1522L576.828 41.5226C591.702 25.8835 605.039 11.8606 628.052 4.85673C676.132 -9.78335 708.98 12.9579 714.823 17.0036C715.014 17.1355 715.175 17.2475 715.308 17.3377C754.797 44.1617 784.921 93.5509 798.195 138.479C798.195 138.479 814.345 183.517 817.497 252.725C818.769 280.729 817.921 312.715 812.999 347.263C811.045 360.906 806.823 389.37 793.383 423.44C785.843 442.52 778.34 455.96 776.496 459.223C775.187 461.546 773.878 463.777 772.569 465.952C767.297 474.654 762.006 482.268 756.512 489.55C752.201 495.322 747.767 500.882 743.157 506.662L742.851 507.046C733.67 518.531 725.614 527.675 719.917 533.925C720.765 534.957 730.979 546.59 736.472 552.268C784.036 601.584 847.363 639.266 909.326 667.547C910.966 668.303 912.607 669.04 914.248 669.759C926.379 675.161 938.749 680.028 951.488 683.973C953.35 684.545 955.231 685.098 957.093 685.632C957.388 685.724 957.664 685.798 957.959 685.872C984.783 693.062 1022.5 699.146 1070.45 697.173C1123.14 691.421 1191.13 678.995 1220.11 630.786C1220.13 630.768 1220.13 630.749 1220.15 630.731C1224.3 623.836 1227.64 616.203 1230.01 607.76C1236.54 584.623 1238.22 558.131 1228.74 535.566C1225.15 527.011 1220.08 519.914 1213.92 514.143C1213.9 514.124 1213.88 514.107 1213.86 514.091C1213.83 514.06 1213.8 514.032 1213.77 513.996C1203.98 504.889 1191.5 499.1 1177.97 496.15C1177.92 496.132 1177.84 496.113 1177.77 496.095L1177.77 496.095C1172.64 494.989 1167.37 494.288 1162.04 493.956H1159.94C1111.27 494.288 1073.11 511.415 1043.94 533.906C1043.85 533.962 1043.78 534.035 1043.7 534.109C1001.49 566.74 972.394 624.02 963.25 644.17C962.236 646.235 961.241 648.318 960.263 650.402C959.866 651.253 959.447 652.091 958.986 653.014C958.699 653.589 958.395 654.198 958.07 654.863L839.878 598.818C943.339 479.152 1032.7 434.095 1054.99 424.398C1056.79 423.605 1059.21 422.61 1062.14 421.485C1062.2 421.458 1062.27 421.435 1062.33 421.412C1062.4 421.389 1062.46 421.365 1062.53 421.338C1075.87 416.526 1089.53 412.618 1103.55 409.723C1105.72 409.262 1107.92 408.838 1110.13 408.433C1122 406.257 1133.96 405.299 1145.86 405.502C1186.1 405.373 1232.84 416.895 1272.69 457.859C1285.41 470.911 1294.96 484.296 1302.02 497.57C1302.06 497.588 1302.06 497.606 1302.06 497.643C1302.38 498.215 1302.67 498.786 1302.96 499.376C1303.5 500.409 1304.02 501.459 1304.51 502.492L1304.63 502.734C1304.83 503.128 1305.03 503.513 1305.2 503.911L1305.2 503.929C1305.63 504.808 1306.05 505.687 1306.43 506.566C1306.8 507.359 1307.15 508.152 1307.48 508.944C1308.51 511.323 1309.47 513.701 1310.36 516.061C1310.87 517.443 1311.35 518.807 1311.83 520.19C1312.86 523.269 1313.79 526.311 1314.63 529.334C1314.91 530.367 1315.17 531.399 1315.43 532.413C1316.16 535.437 1316.81 538.442 1317.36 541.41C1317.51 542.202 1317.66 543.014 1317.79 543.825C1317.82 543.991 1317.84 544.175 1317.86 544.341C1317.89 544.533 1317.92 544.722 1317.95 544.911C1318 545.174 1318.04 545.437 1318.08 545.705C1318.41 547.733 1318.67 549.743 1318.89 551.734C1319.02 552.84 1319.15 553.946 1319.24 555.034L1319.26 555.22C1319.38 556.65 1319.51 558.063 1319.59 559.477ZM549.571 277.595C555.839 304.566 567.011 329.546 580.469 353.605C599.808 388.227 623.074 420.158 647.944 450.964C649.646 453.073 651.237 455.162 652.857 457.288C654.974 460.068 657.141 462.913 659.669 465.952C661.236 464.05 662.874 462.298 664.446 460.616C665.982 458.974 667.455 457.398 668.74 455.813C692.098 426.795 713.999 396.745 733.246 364.796C740.381 352.941 748.861 337.124 756.512 317.766C763.849 299.183 770.431 277.355 774.266 252.725C774.929 248.558 775.519 244.3 775.999 239.967C779.114 212.424 777.178 192.2 776.128 183.425C774.634 171.018 771.924 149.964 760.937 125.187L760.932 125.176C756.047 114.171 749.65 99.7591 736.546 85.1996C727.992 75.6867 702.79 47.6645 663.596 46.1343C629.435 44.7885 605.874 63.556 596.232 71.3359C579.05 85.1996 571.51 99.856 564.264 114.051C548.815 143.862 543.745 173.617 543.266 188.9C541.791 234.971 545.257 259.011 549.571 277.595ZM611.582 754.985C627.57 778.891 643.582 802.83 659.669 826.942C675.728 802.877 691.632 779.013 707.473 755.244C722.055 733.362 736.583 711.562 751.129 689.762C721.816 669.375 696.776 644.841 671.552 620.126C667.601 616.255 663.646 612.38 659.669 608.516C655.801 612.265 651.951 616.026 648.105 619.783C622.617 644.677 597.286 669.419 567.988 689.762C582.527 711.544 597.045 733.25 611.582 754.985Z" fill="black"/>
</svg>
