<svg width="859" height="1289" viewBox="0 0 859 1289" fill="none" xmlns="http://www.w3.org/2000/svg">
<path d="M260.2 278.833V0L431.74 191.457L601.353 0.642473V280.118L429.813 472.86L260.2 278.833Z" fill="black"/>
<path fill-rule="evenodd" clip-rule="evenodd" d="M857.699 479.285C877.616 724.067 665.84 925.803 429.17 925.803C192.499 925.803 -4.49866 738.844 0.640315 479.285C0.640315 479.07 0.64046 478.856 0.64075 478.642H132.209C123.431 656.021 264.91 794.739 429.812 794.739C594.492 794.739 734.174 651.95 728.049 478.642H857.699C857.699 478.856 857.699 479.07 857.699 479.285Z" fill="black"/>
<rect x="162.546" y="1133.96" width="26.9839" height="26.9839" rx="2" fill="black"/>
<path d="M300.035 1196.85V1173.87C300.035 1172.77 299.139 1171.87 298.035 1171.87H229.161C217.563 1171.87 208.161 1181.27 208.161 1192.87V1284.87C208.161 1285.98 209.057 1286.87 210.161 1286.87H232.503C233.607 1286.87 234.503 1285.98 234.503 1284.87V1200.85C234.503 1199.75 235.398 1198.85 236.503 1198.85H298.035C299.139 1198.85 300.035 1197.96 300.035 1196.85Z" fill="black"/>
<path d="M28.6286 1172.51H3.39827C1.87347 1172.51 0.909522 1174.15 1.64977 1175.48L62.9328 1285.84C63.2855 1286.48 63.9549 1286.87 64.6813 1286.87H85.5601C86.2847 1286.87 86.9526 1286.48 87.3061 1285.85L149.319 1174.85C150.064 1173.51 149.1 1171.87 147.573 1171.87H121.921C120.824 1171.87 119.815 1172.47 119.289 1173.43L76.0393 1252.52C75.6615 1253.21 74.6705 1253.21 74.2879 1252.52L30.3766 1173.54C30.0238 1172.91 29.3547 1172.51 28.6286 1172.51Z" fill="black"/>
<path d="M472.578 1171.87H447.347C445.823 1171.87 444.859 1173.51 445.599 1174.84L506.882 1285.2C507.235 1285.84 507.904 1286.23 508.631 1286.23H529.509C530.234 1286.23 530.902 1285.84 531.255 1285.21L593.268 1174.2C594.013 1172.87 593.049 1171.23 591.522 1171.23H565.87C564.774 1171.23 563.764 1171.83 563.238 1172.79L519.989 1251.87C519.611 1252.56 518.62 1252.57 518.237 1251.88L474.326 1172.9C473.973 1172.26 473.304 1171.87 472.578 1171.87Z" fill="black"/>
<rect x="162.546" y="1171.23" width="26.9839" height="116.93" rx="2" fill="black"/>
<path fill-rule="evenodd" clip-rule="evenodd" d="M320.023 1172.51H414.954C425.999 1172.51 434.953 1181.47 434.953 1192.51V1284.87C434.953 1285.98 434.058 1286.87 432.953 1286.87H339.023C327.425 1286.87 318.023 1277.47 318.023 1265.87V1218.2C318.023 1217.1 318.919 1216.2 320.023 1216.2H406.612C407.717 1216.2 408.612 1215.31 408.612 1214.2V1200.86C408.612 1199.75 407.717 1198.86 406.612 1198.86H320.023C318.919 1198.86 318.023 1197.96 318.023 1196.86V1174.51C318.023 1173.41 318.919 1172.51 320.023 1172.51ZM347.007 1243.19C345.903 1243.19 345.007 1244.08 345.007 1245.19V1257.89C345.007 1258.99 345.903 1259.89 347.007 1259.89H405.97C407.074 1259.89 407.97 1258.99 407.97 1257.89V1245.19C407.97 1244.08 407.074 1243.19 405.97 1243.19H347.007Z" fill="black"/>
<path fill-rule="evenodd" clip-rule="evenodd" d="M609.137 1172.51H704.067C715.112 1172.51 724.067 1181.47 724.067 1192.51V1284.87C724.067 1285.98 723.171 1286.87 722.067 1286.87H628.137C616.539 1286.87 607.137 1277.47 607.137 1265.87V1218.2C607.137 1217.1 608.032 1216.2 609.137 1216.2H695.725C696.83 1216.2 697.725 1215.31 697.725 1214.2V1200.86C697.725 1199.75 696.83 1198.86 695.725 1198.86H609.137C608.032 1198.86 607.137 1197.96 607.137 1196.86V1174.51C607.137 1173.41 608.032 1172.51 609.137 1172.51ZM636.121 1243.19C635.016 1243.19 634.121 1244.08 634.121 1245.19V1257.89C634.121 1258.99 635.016 1259.89 636.121 1259.89H695.083C696.187 1259.89 697.083 1258.99 697.083 1257.89V1245.19C697.083 1244.08 696.187 1243.19 695.083 1243.19H636.121Z" fill="black"/>
<path d="M763.828 1134.61H740.844C739.739 1134.61 738.844 1135.5 738.844 1136.61V1265.87C738.844 1277.47 748.246 1286.87 759.844 1286.87H788.242C789.346 1286.87 790.242 1285.98 790.242 1284.87V1262.53C790.242 1261.43 789.346 1260.53 788.242 1260.53H767.828C766.723 1260.53 765.828 1259.64 765.828 1258.53V1136.61C765.828 1135.5 764.932 1134.61 763.828 1134.61Z" fill="black"/>
<path d="M832.572 1134.61H809.588C808.483 1134.61 807.588 1135.5 807.588 1136.61V1265.87C807.588 1277.47 816.99 1286.87 828.588 1286.87H856.986C858.09 1286.87 858.986 1285.98 858.986 1284.87V1262.53C858.986 1261.43 858.09 1260.53 856.986 1260.53H836.572C835.467 1260.53 834.572 1259.64 834.572 1258.53V1136.61C834.572 1135.5 833.676 1134.61 832.572 1134.61Z" fill="black"/>
</svg>
