<svg width="1209" height="1153" viewBox="0 0 1209 1153" fill="none" xmlns="http://www.w3.org/2000/svg">
<path opacity="0.999" fill-rule="evenodd" clip-rule="evenodd" d="M983.717 0C984.35 0 984.982 0 985.615 0C986.175 0.966013 986.545 2.02071 986.723 3.16409C987.036 78.0566 986.931 152.94 986.406 227.815C984.862 228.908 983.388 230.068 981.976 231.295C945.899 248.544 909.829 265.841 873.764 283.186C860.808 289.796 847.784 296.282 834.688 302.645C829.973 304.498 825.436 306.713 821.082 309.29C814.685 312.372 808.198 315.273 801.623 317.991C799.687 319.355 797.734 320.671 795.77 321.946C793.336 324.487 791.122 327.227 789.125 330.173C787.711 333.268 786.341 336.378 785.012 339.507C763.913 404.067 742.714 468.615 721.413 533.15C695.123 611.73 669.124 690.411 643.419 769.191C642.893 770.662 642.048 771.928 640.887 772.988C640.735 773.288 640.682 773.605 640.729 773.937C640.308 773.937 639.884 773.937 639.463 773.937C639.413 772.953 639.204 772.004 638.831 771.089C638.726 676.325 638.619 581.56 638.514 486.796C638.568 392.031 638.619 297.266 638.672 202.502C639.027 202.043 639.236 201.516 639.305 200.92C640.061 200.214 640.64 199.37 641.045 198.389C641.9 197.961 642.637 197.381 643.26 196.648C673.566 179.46 703.732 162.005 733.753 144.283C768.467 124.46 803.06 104.368 837.536 84.0067C846.37 79.3425 855.017 74.3853 863.481 69.1354C867.996 66.6355 872.534 64.1567 877.087 61.6998C908.433 43.0744 939.862 24.6172 971.377 6.32819C973.914 5.24334 976.287 3.87225 978.496 2.21486C980.132 1.15828 981.872 0.419987 983.717 0Z" fill="black"/>
<path opacity="0.999" fill-rule="evenodd" clip-rule="evenodd" d="M232.878 0.316803C234.751 0.196625 236.544 0.513034 238.257 1.26603C279.612 25.419 321.061 49.4662 362.606 73.4073C366.88 76.2035 371.31 78.7876 375.895 81.1594C376.749 81.901 377.648 82.5867 378.584 83.216C380.113 83.9511 381.644 84.6892 383.172 85.4309C392.959 91.431 402.875 97.1789 412.915 102.675C437.848 117.31 462.79 131.707 487.746 145.865C508.138 158.04 528.654 170.01 549.287 181.778C557.691 187.116 566.342 192.073 575.233 196.649C576.337 197.437 577.34 198.334 578.239 199.338C578.356 200.087 578.726 200.667 579.346 201.079C579.545 201.754 579.704 202.44 579.821 203.135C579.874 297.847 579.925 392.56 579.979 487.271C579.925 581.981 579.874 676.695 579.821 771.406C579.599 772.349 579.441 773.298 579.346 774.254C578.748 774.317 578.273 774.108 577.922 773.621C577.131 772.46 576.34 771.302 575.549 770.141C562.709 732.08 550.16 693.902 537.896 655.6C530.087 633.86 522.81 611.92 516.064 589.787C510.638 573.676 505.259 557.539 499.927 541.377C499.725 540.912 499.462 540.491 499.136 540.111C476.798 471.599 454.282 403.15 431.583 334.761C430.45 332.306 429.238 329.882 427.944 327.484C426.78 326.212 425.726 324.842 424.78 323.371C423.546 322.516 422.334 321.618 421.141 320.681C394.183 306.95 366.972 293.767 339.508 281.13C305.125 264.288 270.637 247.624 236.042 231.137C234.935 230.346 233.827 229.555 232.72 228.764C232.43 227.612 232.167 226.452 231.929 225.284C231.507 151.139 231.507 76.9932 231.929 2.84808C232.247 1.99704 232.564 1.15328 232.878 0.316803Z" fill="black"/>
<path opacity="0.998" fill-rule="evenodd" clip-rule="evenodd" d="M1014.41 280.656C1015.51 280.974 1016.57 281.448 1017.57 282.08C1046.54 299.995 1075.39 318.084 1104.11 336.344C1105.89 338.562 1105.62 340.619 1103.32 342.514C1090.48 349.988 1077.77 357.635 1065.19 365.454C1033.27 384.214 1001.57 403.094 970.111 422.091C958.299 428.964 946.592 435.925 934.99 442.974C932.006 444.892 929.051 446.844 926.13 448.828C925.497 449.04 924.864 449.249 924.232 449.461C922.048 450.995 919.834 452.473 917.587 453.89C913.651 456.096 909.696 458.257 905.722 460.377C903.308 461.956 901.093 463.75 899.077 465.756C887.383 483.645 875.938 501.785 864.747 520.178C861.814 524.545 858.912 528.974 856.045 533.467C832.277 572.088 808.179 610.424 783.746 648.482C760.056 686.888 736.167 725.12 712.079 763.18C711.231 764.082 710.333 764.927 709.39 765.712C708.966 765.237 708.437 765.025 707.808 765.079C707.792 764.171 707.896 763.272 708.124 762.389C722.1 718.247 736.443 674.212 751.156 630.289C757.281 610.772 763.398 591.259 769.508 571.753C774.58 556.315 779.747 540.919 785.012 525.557C794.58 494.501 804.6 463.601 815.07 432.849C821.149 413.206 827.319 393.589 833.58 373.997C834.264 371.845 835.159 369.789 836.27 367.827C837.877 366.004 839.671 364.422 841.649 363.081C868.449 350.459 895.081 337.54 921.542 324.321C939.131 315.994 956.743 307.662 974.383 299.324C979.948 296.422 985.539 293.575 991.152 290.781C996.98 287.999 1002.83 285.257 1008.71 282.555C1010.69 282.055 1012.59 281.422 1014.41 280.656Z" fill="black"/>
<path opacity="0.998" fill-rule="evenodd" clip-rule="evenodd" d="M202.502 281.288C203.994 281.185 205.47 281.291 206.932 281.605C212.038 283.534 216.943 285.854 221.645 288.566C225.636 290.119 229.486 291.965 233.194 294.103C254.474 304.147 275.62 314.431 296.634 324.953C318.046 334.92 339.349 345.149 360.549 355.645C364.38 357.157 368.073 358.951 371.623 361.024C374.347 362.09 377.037 363.251 379.692 364.504C380.483 365.453 381.274 366.402 382.065 367.352C382.802 369.136 383.539 370.927 384.279 372.731C399.189 420.48 414.642 468.046 430.633 515.431C443.527 556.248 456.712 596.96 470.185 637.565C472.64 645.922 475.171 654.253 477.778 662.562C488.698 695.107 499.351 727.751 509.736 760.49C510.122 761.984 510.122 763.461 509.736 764.92C508.78 765.164 507.939 764.955 507.204 764.287C478.601 719.205 450.232 673.959 422.09 628.548C399.464 593.347 377.157 557.855 355.17 522.076C353.528 520.016 352.158 517.801 351.056 515.431C349.895 513.846 348.734 512.264 347.576 510.685C339.011 496.292 330.151 482.053 320.998 467.97C319.248 466.22 317.508 464.48 315.777 462.749C248.589 422.29 181.247 381.84 113.75 341.406C113.59 340.555 113.221 339.818 112.642 339.191C113.164 338.264 113.638 337.315 114.066 336.344C121.391 331.427 128.932 326.731 136.689 322.263C145.158 316.65 153.807 311.272 162.635 306.127C175.812 297.532 189.101 289.253 202.502 281.288Z" fill="black"/>
<path opacity="0.998" fill-rule="evenodd" clip-rule="evenodd" d="M491.384 1152.36C485.584 1152.36 479.781 1152.36 473.981 1152.36C463.157 1151.61 452.506 1149.71 442.024 1146.67C437.338 1145.09 432.75 1143.29 428.26 1141.29C417.423 1135.64 407.719 1128.46 399.15 1119.77C396.597 1116.88 394.119 1113.93 391.715 1110.91C389.266 1107.21 386.788 1103.52 384.279 1099.84C375.913 1084.45 370.48 1068 367.984 1050.48C364.019 1023.13 364.969 995.971 370.832 969.004C376.147 946.906 386.589 927.921 402.156 912.05C406.358 908.218 410.788 904.684 415.445 901.45C431.981 890.93 450.121 885.076 469.868 883.89C488.558 882.456 506.91 884.25 524.923 889.269C547.499 896.109 565.534 909.028 579.029 928.029C588.585 943.045 595.122 959.394 598.646 977.072C601.829 995.709 602.937 1014.48 601.969 1033.39C601.877 1034.15 601.719 1034.89 601.494 1035.61C545.91 1035.92 490.33 1036.03 434.746 1035.92C434.822 1048.05 437.354 1059.59 442.34 1070.57C443.672 1072.48 444.887 1074.43 445.979 1076.42C449.551 1081.09 453.718 1085.15 458.477 1088.61C467.004 1093.52 476.231 1095.79 486.163 1095.41C492.906 1095.42 499.496 1094.47 505.938 1092.56C509.865 1091.01 513.662 1089.21 517.329 1087.18C519.544 1084.76 521.863 1082.44 524.29 1080.22C524.724 1079.19 525.303 1078.24 526.03 1077.37C527.875 1075.43 529.827 1073.59 531.884 1071.84C535.073 1070.09 538.446 1068.77 542.009 1067.88C560.883 1067.46 579.763 1067.46 598.646 1067.88C596.571 1074.57 594.302 1081.22 591.844 1087.82C589.951 1091.34 588.157 1094.93 586.465 1098.57C584.196 1102.22 581.874 1105.81 579.504 1109.33C577.985 1110.89 576.612 1112.58 575.39 1114.39C571.929 1118.28 568.29 1121.91 564.474 1125.31C562.269 1126.68 560.158 1128.15 558.146 1129.74C557.934 1130.06 557.725 1130.37 557.513 1130.69C554.903 1132.49 552.267 1134.23 549.603 1135.91C541.712 1140.26 533.485 1143.84 524.923 1146.67C513.896 1149.69 502.717 1151.59 491.384 1152.36ZM478.727 940.369C485.812 939.995 492.773 940.628 499.61 942.267C509.584 945.203 517.389 950.899 523.025 959.353C525.154 962.979 526.945 966.776 528.404 970.744C530.191 977.724 531.561 984.739 532.517 991.785C499.927 991.943 467.337 991.997 434.746 991.943C434.93 981.853 437.303 972.361 441.866 963.467C450.193 949.693 462.48 941.992 478.727 940.369Z" fill="black"/>
<path opacity="0.997" fill-rule="evenodd" clip-rule="evenodd" d="M1209 951.759C1209 985.194 1209 1018.63 1209 1052.06C1208.39 1057.6 1207.86 1063.24 1207.42 1068.99C1203.58 1096.41 1190.4 1117.92 1167.87 1133.54C1158.28 1139.07 1148.15 1143.39 1137.49 1146.51C1132.64 1147.78 1127.74 1148.78 1122.78 1149.51C1111.62 1150.7 1100.5 1151.65 1089.4 1152.36C1083.28 1152.36 1077.16 1152.36 1071.05 1152.36C1049.52 1150.91 1030.43 1143.69 1013.78 1130.69C1011.73 1128.22 1009.46 1125.95 1006.97 1123.89C1000.16 1114.79 995.626 1104.56 993.367 1093.19C991 1078.1 991.054 1063.02 993.525 1047.95C996.151 1035.09 1002.06 1024.17 1011.24 1015.2C1019.19 1008.9 1027.84 1003.68 1037.19 999.537C1052.73 993.323 1068.87 989.472 1085.6 987.988C1093.96 986.226 1102.4 984.856 1110.91 983.875C1114.63 983.169 1118.33 982.27 1121.99 981.185C1127 979.521 1131.75 977.36 1136.23 974.699C1143.1 969.959 1145.73 963.473 1144.14 955.24C1142.13 948.839 1137.91 944.513 1131.48 942.267C1122 939.34 1112.3 937.758 1102.37 937.521C1093.4 937.53 1084.7 939.112 1076.27 942.267C1072.64 944.361 1069.42 947 1066.62 950.177C1065.52 951.879 1064.46 953.62 1063.45 955.398C1041.72 955.556 1020 955.61 998.271 955.556C1000.48 938.195 1007.54 923.27 1019.47 910.784C1022.21 908.572 1024.85 906.253 1027.38 903.823C1041.01 893.866 1056.36 887.696 1073.42 885.313C1077.91 884.861 1082.39 884.386 1086.87 883.889C1104.58 882.962 1122.2 883.861 1139.71 886.579C1145.54 887.829 1151.34 889.202 1157.11 890.692C1159.55 891.486 1161.98 892.331 1164.39 893.223C1175.41 897.457 1184.95 903.785 1193.02 912.208C1199.1 919.229 1203.53 927.244 1206.31 936.255C1206.49 938.005 1206.91 939.694 1207.58 941.318C1207.93 944.909 1208.4 948.389 1209 951.759ZM1145.09 1018.21C1145.51 1022.74 1145.72 1027.37 1145.72 1032.13C1145.82 1040.28 1145.35 1048.41 1144.29 1056.49C1139.4 1078.76 1125.9 1092.57 1103.79 1097.94C1096.09 1099.53 1088.34 1099.84 1080.54 1098.89C1075.37 1098.07 1070.52 1096.39 1065.98 1093.83C1063.99 1092.41 1062.25 1090.72 1060.76 1088.76C1059.45 1086.36 1058.14 1083.93 1056.81 1081.49C1052.8 1068.8 1054.7 1057.2 1062.5 1046.68C1067.44 1042.8 1072.93 1039.74 1078.96 1037.51C1089.53 1034.45 1100.23 1031.92 1111.07 1029.91C1115.63 1028.5 1120.22 1027.24 1124.83 1026.12C1128.72 1024.81 1132.62 1023.49 1136.54 1022.16C1138.86 1021.21 1141.18 1020.26 1143.5 1019.31C1144.03 1018.9 1144.56 1018.54 1145.09 1018.21Z" fill="black"/>
<path opacity="0.998" fill-rule="evenodd" clip-rule="evenodd" d="M0 889.11C22.0432 889.11 44.0863 889.11 66.1295 889.11C67.2395 895.03 68.4526 900.934 69.7682 906.829C81.9576 959.388 93.9811 1012.02 105.839 1064.72C106.322 1064.39 106.585 1063.91 106.63 1063.29C118.532 1005.22 130.45 947.159 142.384 889.11C165.377 889.11 188.369 889.11 211.361 889.11C222.98 948.177 234.424 1007.24 245.692 1066.3C257.011 1016.84 268.296 967.377 279.548 917.903C280.302 914.628 281.145 911.36 282.079 908.095C282.862 906.272 283.706 904.481 284.61 902.716C285.559 901.346 286.509 899.972 287.458 898.602C288.99 897.365 290.414 896.046 291.729 894.647C293.52 893.701 295.313 892.752 297.108 891.8C300.797 890.49 304.594 889.645 308.499 889.268C323.899 889.11 339.295 889.056 354.695 889.11C354.663 890.455 354.451 891.774 354.062 893.065C330.736 977.771 307.639 1062.52 284.768 1147.3C261.912 1147.4 239.078 1147.3 216.266 1146.98C205.257 1094.8 194.024 1042.65 182.568 990.519C180.729 981.84 178.989 973.139 177.347 964.415C164.424 1025.3 151.398 1086.16 138.271 1146.98C115.502 1147.3 92.7209 1147.4 69.9264 1147.3C46.8004 1061.82 23.4916 976.385 0 891.009C0 890.376 0 889.743 0 889.11Z" fill="black"/>
<path opacity="0.997" fill-rule="evenodd" clip-rule="evenodd" d="M730.905 1152.36C726.687 1152.36 722.467 1152.36 718.249 1152.36C694.363 1150.51 672.002 1143.76 651.17 1132.11C644.823 1128.45 639.077 1124.02 633.926 1118.82C633.821 1118.51 633.714 1118.19 633.609 1117.87C632.363 1116.8 631.205 1115.64 630.129 1114.39C628.379 1111.64 626.639 1108.84 624.908 1106.01C619.149 1094.31 615.457 1081.97 613.834 1068.99C613.359 1063.87 612.884 1058.76 612.41 1053.64C612.252 998.8 612.198 943.953 612.252 889.11C634.821 889.11 657.394 889.11 679.963 889.11C679.859 944.694 679.963 1000.27 680.28 1055.86C680.501 1059.46 680.868 1063.05 681.387 1066.62C682.45 1071.39 684.19 1075.87 686.608 1080.06C688.772 1083.29 691.411 1086.13 694.518 1088.61C707.447 1097.79 721.685 1100.53 737.233 1096.83C746.346 1094.36 754.098 1089.67 760.489 1082.75C763.511 1078.72 765.777 1074.29 767.292 1069.46C768.026 1065.37 768.605 1061.26 769.032 1057.12C769.137 1010.51 769.244 963.887 769.349 917.27C771.542 904.114 778.873 895.255 791.339 890.692C793.842 890.053 796.373 889.578 798.933 889.268C811.378 889.11 823.825 889.056 836.269 889.11C836.374 942.9 836.269 996.689 835.953 1050.48C835.776 1067.53 832.662 1083.99 826.619 1099.84C823.648 1106.4 820.009 1112.52 815.703 1118.19C814.909 1118.94 814.118 1119.68 813.33 1120.41C813.225 1120.72 813.118 1121.04 813.013 1121.35C809.96 1124.23 806.745 1126.92 803.363 1129.42C785.79 1140.36 766.647 1147.48 745.935 1150.78C740.866 1151.22 735.857 1151.75 730.905 1152.36Z" fill="black"/>
<path opacity="0.998" fill-rule="evenodd" clip-rule="evenodd" d="M974.857 889.11C980.448 889.11 986.036 889.11 991.627 889.11C991.681 912.208 991.627 935.306 991.469 958.404C982.473 958.667 973.456 958.825 964.416 958.879C956.271 959.062 948.412 960.59 940.843 963.467C928.744 968.735 920.887 977.806 917.271 990.678C915.98 995.452 915.081 1000.3 914.581 1005.23C914.423 1052.59 914.369 1099.94 914.423 1147.3C891.642 1147.3 868.86 1147.3 846.079 1147.3C845.974 1101.42 846.079 1055.54 846.395 1009.66C847.05 997.68 848.79 985.868 851.616 974.224C856.587 956.98 864.709 941.581 875.979 928.029C887.604 915.698 901.419 906.418 917.429 900.185C930.12 895.641 943.197 892.477 956.664 890.692C962.777 890.145 968.839 889.617 974.857 889.11Z" fill="black"/>
</svg>
